<svg id="Layer_1" data-name="Layer 1" xmlns="http://www.w3.org/2000/svg" xmlns:xlink="http://www.w3.org/1999/xlink" viewBox="0 0 48 48"><defs><style>.cls-1{fill:url(#linear-gradient);}.cls-2{fill:url(#linear-gradient-2);}.cls-3{fill:#fff;}</style><linearGradient id="linear-gradient" x1="1.44" y1="41.74" x2="46.56" y2="41.74" gradientUnits="userSpaceOnUse"><stop offset="0" stop-color="#00bafb"/><stop offset="1" stop-color="#00e461"/></linearGradient><linearGradient id="linear-gradient-2" x1="3.65" y1="18.67" x2="41.26" y2="18.67" xlink:href="#linear-gradient"/></defs><path class="cls-1" d="M45.87,35.47H41.56a.7.7,0,0,0-.7.7v6.12H7.14V36.17a.7.7,0,0,0-.7-.7H2.13a.69.69,0,0,0-.69.7V47.3a.69.69,0,0,0,.69.7H45.87a.69.69,0,0,0,.69-.7V36.17A.69.69,0,0,0,45.87,35.47Z"/><path class="cls-2" d="M19.56,35.18a2,2,0,0,0,1.55.62h0a2.71,2.71,0,0,0,.58-.07l.91,1.06a2,2,0,0,0,2.8,0l7.82-9.16L41,18.46c.63-.73-.15-1.64-1.4-1.64H38.32a1,1,0,0,0,.15-1.05,1.84,1.84,0,0,0-1.72-.88H31.44V9.25a.69.69,0,0,0-.69-.7h-2v-1a.86.86,0,0,0,0-.28h2.05a.82.82,0,0,0,.82-.82V2.74a.82.82,0,0,0-.82-.81H28.87V1a1,1,0,0,0-1-1H14.36a1,1,0,0,0-1,1V4.68a1,1,0,0,0,1,1h2.07v.72a.76.76,0,0,0,0,.21H14.13a.89.89,0,0,0-.89.89v7.38H5.47a1.86,1.86,0,0,0-1.73.88,1,1,0,0,0,.18,1.08ZM36.75,15.27a1.46,1.46,0,0,1,1.37.67.56.56,0,0,1-.12.66l-.18.22H31.44V15.27ZM14.36,5.3a.63.63,0,0,1-.63-.62V1a.62.62,0,0,1,.63-.62h13.5a.62.62,0,0,1,.62.62v.92H17.25a.82.82,0,0,0-.82.81V5.3ZM4.09,15.94a1.48,1.48,0,0,1,1.38-.67h8.15V7.51A.51.51,0,0,1,14.13,7h2.56a.81.81,0,0,0,.56.23h11a.55.55,0,0,1,.09.28v1H17a.7.7,0,0,0-.7.7v7.57h-8c-1.25,0-2,.91-1.4,1.64l7.82,9.17,6.62,7.76a1.37,1.37,0,0,1-.29,0h0a1.67,1.67,0,0,1-1.26-.48L12,25.77h0L4.21,16.6A.59.59,0,0,1,4.09,15.94Z"/><path class="cls-3" d="M14.56,5.27H27.64a.78.78,0,0,0,.79-.75V1.14a.77.77,0,0,0-.79-.75H14.56a.76.76,0,0,0-.79.75V4.52A.77.77,0,0,0,14.56,5.27Z"/><path class="cls-3" d="M12.16,25.81l7.69,9a2,2,0,0,0,2.76,0l7.68-9,7.69-9c.61-.72-.15-1.62-1.38-1.62H28.54V7.76a.69.69,0,0,0-.68-.69H14.36a.69.69,0,0,0-.68.69v7.43H5.85c-1.23,0-2,.9-1.38,1.62Z"/></svg>