<svg id="Layer_1" data-name="Layer 1" xmlns="http://www.w3.org/2000/svg" xmlns:xlink="http://www.w3.org/1999/xlink" viewBox="0 0 42 42"><defs><style>.cls-1{fill:url(#linear-gradient);}.cls-2{fill:url(#linear-gradient-2);}.cls-3{fill:url(#linear-gradient-3);}</style><linearGradient id="linear-gradient" x1="3.69" y1="17.29" x2="38.31" y2="17.29" gradientUnits="userSpaceOnUse"><stop offset="0" stop-color="#00e461"/><stop offset="1" stop-color="#00bafb"/></linearGradient><linearGradient id="linear-gradient-2" x1="5.73" y1="31.18" x2="36.51" y2="31.18" xlink:href="#linear-gradient"/><linearGradient id="linear-gradient-3" x1="27.26" y1="8.15" x2="33.19" y2="8.15" xlink:href="#linear-gradient"/></defs><path class="cls-1" d="M36.23,0H21.73c-1.14,0-1.35.5-2.44,1.64L5,15.88A4.44,4.44,0,0,0,5,22.2l11.1,11.07a4.5,4.5,0,0,0,6.35,0L36.74,19c.92-.92,1.57-1.37,1.57-2.51V2.07A2.08,2.08,0,0,0,36.23,0ZM35.15,17.46,20.87,31.69a2.23,2.23,0,0,1-3.17,0L6.59,20.62a2.24,2.24,0,0,1,0-3.16L20.87,3.22a3.55,3.55,0,0,1,1.9-1.15H35.2a1,1,0,0,1,1,1V15.49A3.46,3.46,0,0,1,35.15,17.46Z"/><path class="cls-2" d="M22.62,34.28a4.87,4.87,0,0,1-3.3,1.37,4.8,4.8,0,0,1-3.06-1.07l-8.8-8.77L6.39,26.87a2.26,2.26,0,0,0,0,3.21L17.68,41.34a2.28,2.28,0,0,0,3.22,0L35.41,26.87a3.49,3.49,0,0,0,1.1-2V20.36l-1.1,1.18Z"/><circle class="cls-3" cx="30.23" cy="8.15" r="2.96"/></svg>