<svg id="Layer_1" data-name="Layer 1" xmlns="http://www.w3.org/2000/svg" xmlns:xlink="http://www.w3.org/1999/xlink" viewBox="0 0 42 42"><defs><style>.cls-1{fill:url(#linear-gradient);}.cls-2{fill:url(#linear-gradient-2);}.cls-3{fill:url(#linear-gradient-3);}.cls-4{fill:url(#linear-gradient-4);}.cls-5{fill:url(#linear-gradient-5);}</style><linearGradient id="linear-gradient" x1="22.32" y1="34.09" x2="38.13" y2="34.09" gradientUnits="userSpaceOnUse"><stop offset="0" stop-color="#00e461"/><stop offset="1" stop-color="#00bafb"/></linearGradient><linearGradient id="linear-gradient-2" x1="1.23" y1="18.14" x2="19.68" y2="18.14" xlink:href="#linear-gradient"/><linearGradient id="linear-gradient-3" x1="3.87" y1="33.95" x2="19.68" y2="33.95" xlink:href="#linear-gradient"/><linearGradient id="linear-gradient-4" x1="7.37" y1="5.55" x2="35.04" y2="5.55" xlink:href="#linear-gradient"/><linearGradient id="linear-gradient-5" x1="22.32" y1="18.14" x2="40.77" y2="18.14" xlink:href="#linear-gradient"/></defs><rect class="cls-1" x="22.32" y="26.19" width="15.81" height="15.81"/><polygon class="cls-2" points="1.23 12.87 1.23 23.41 19.68 23.41 19.68 17.76 19.68 12.87 17.05 12.87 1.23 12.87"/><rect class="cls-3" x="3.87" y="26.05" width="15.81" height="15.81"/><path class="cls-4" d="M24,9V8.86a2,2,0,0,0-.39-1.16c.89-.9,5.55-5.39,7.54-2.58,2.21,3.11-5,6-5,6,12-.12,9.25-7.57,6.63-9.94S29,.82,29,.82L23.13,7.26A2,2,0,0,0,22,6.92H20.38a2,2,0,0,0-1.1.34L13.45.82s-1.18-2-3.8.33S4.25,11,16.28,11.09c0,0-7.2-2.86-5-6,2-2.81,6.64,1.68,7.54,2.58a2,2,0,0,0-.39,1.16V9a1.94,1.94,0,0,0,1.94,1.94H22A1.94,1.94,0,0,0,24,9Z"/><polygon class="cls-5" points="24.95 12.87 22.32 12.87 22.32 17.76 22.32 23.41 40.77 23.41 40.77 12.87 24.95 12.87"/></svg>