<svg id="Layer_1" data-name="Layer 1" xmlns="http://www.w3.org/2000/svg" xmlns:xlink="http://www.w3.org/1999/xlink" viewBox="0 0 42 42"><defs><style>.cls-1{fill:url(#linear-gradient);}.cls-2{fill:url(#linear-gradient-2);}.cls-3{fill:url(#linear-gradient-3);}.cls-4{fill:url(#linear-gradient-4);}.cls-5{fill:url(#linear-gradient-5);}.cls-6{fill:url(#linear-gradient-6);}.cls-7{fill:url(#linear-gradient-7);}.cls-8{fill:url(#linear-gradient-8);}.cls-9{fill:url(#linear-gradient-9);}</style><linearGradient id="linear-gradient" x1="0.76" y1="23.42" x2="41.24" y2="23.42" gradientUnits="userSpaceOnUse"><stop offset="0" stop-color="#00e461"/><stop offset="1" stop-color="#00bafb"/></linearGradient><linearGradient id="linear-gradient-2" x1="7.45" y1="4.33" x2="10.25" y2="4.33" xlink:href="#linear-gradient"/><linearGradient id="linear-gradient-3" x1="31.75" y1="4.33" x2="34.55" y2="4.33" xlink:href="#linear-gradient"/><linearGradient id="linear-gradient-4" x1="8.15" y1="21.7" x2="15.56" y2="21.7" xlink:href="#linear-gradient"/><linearGradient id="linear-gradient-5" x1="17.48" y1="21.7" x2="24.88" y2="21.7" xlink:href="#linear-gradient"/><linearGradient id="linear-gradient-6" x1="8.15" y1="31.02" x2="15.56" y2="31.02" xlink:href="#linear-gradient"/><linearGradient id="linear-gradient-7" x1="17.48" y1="31.02" x2="24.88" y2="31.02" xlink:href="#linear-gradient"/><linearGradient id="linear-gradient-8" x1="27.15" y1="21.7" x2="34.55" y2="21.7" xlink:href="#linear-gradient"/><linearGradient id="linear-gradient-9" x1="27.15" y1="31.02" x2="34.55" y2="31.02" xlink:href="#linear-gradient"/></defs><path class="cls-1" d="M4.58,4.84A3.82,3.82,0,0,0,.76,8.65V38.18A3.82,3.82,0,0,0,4.58,42H37.42a3.82,3.82,0,0,0,3.82-3.82V8.65a3.82,3.82,0,0,0-3.82-3.81H36.08V7.25a2.93,2.93,0,1,1-5.85,0V4.84H11.77V7.25a2.93,2.93,0,1,1-5.85,0V4.84ZM7,15.53H35a1.47,1.47,0,0,1,1.53,1.38V36A1.47,1.47,0,0,1,35,37.42H7A1.47,1.47,0,0,1,5.47,36V16.91A1.47,1.47,0,0,1,7,15.53Z"/><path class="cls-2" d="M7.45,1.4V7.25a1.4,1.4,0,0,0,2.8,0V1.4a1.4,1.4,0,0,0-2.8,0Z"/><path class="cls-3" d="M31.75,1.4V7.25a1.4,1.4,0,1,0,2.8,0V1.4a1.4,1.4,0,1,0-2.8,0Z"/><rect class="cls-4" x="8.15" y="17.91" width="7.41" height="7.58"/><rect class="cls-5" x="17.48" y="17.91" width="7.41" height="7.58"/><rect class="cls-6" x="8.15" y="27.23" width="7.41" height="7.58"/><rect class="cls-7" x="17.48" y="27.23" width="7.41" height="7.58"/><rect class="cls-8" x="27.15" y="17.91" width="7.41" height="7.58"/><rect class="cls-9" x="27.15" y="27.23" width="7.41" height="7.58"/></svg>