<?xml version="1.0" encoding="utf-8"?>
<!-- Generator: Adobe Illustrator 24.2.0, SVG Export Plug-In . SVG Version: 6.00 Build 0)  -->
<svg version="1.1" id="Layer_1" xmlns="http://www.w3.org/2000/svg" xmlns:xlink="http://www.w3.org/1999/xlink" x="0px" y="0px"
	 viewBox="0 0 42 42" style="enable-background:new 0 0 42 42;" xml:space="preserve">
<style type="text/css">
	.st0{fill:url(#SVGID_1_);}
	.st1{fill:url(#SVGID_2_);}
	.st2{fill:url(#SVGID_3_);}
	.st3{fill:url(#SVGID_4_);}
	.st4{fill:url(#SVGID_5_);}
	.st5{fill:url(#SVGID_6_);}
	.st6{fill:url(#SVGID_7_);}
	.st7{fill:url(#SVGID_8_);}
	.st8{fill:url(#SVGID_9_);}
	.st9{fill:url(#SVGID_10_);}
	.st10{fill:url(#SVGID_11_);}
	.st11{fill:url(#SVGID_12_);}
	.st12{fill:url(#SVGID_13_);}
	.st13{fill:url(#SVGID_14_);}
	.st14{fill:url(#SVGID_15_);}
	.st15{fill:url(#SVGID_16_);}
	.st16{fill:url(#SVGID_17_);}
	.st17{fill:url(#SVGID_18_);}
	.st18{fill:url(#SVGID_19_);}
	.st19{fill:url(#SVGID_20_);}
	.st20{fill:url(#SVGID_21_);}
	.st21{fill:url(#SVGID_22_);}
	.st22{fill:url(#SVGID_23_);}
	.st23{fill:url(#SVGID_24_);}
	.st24{fill:url(#SVGID_25_);}
	.st25{fill:url(#SVGID_26_);}
	.st26{fill:url(#SVGID_27_);}
	.st27{fill:url(#SVGID_28_);}
	.st28{fill:url(#SVGID_29_);}
	.st29{fill:url(#SVGID_30_);}
	.st30{fill:url(#SVGID_31_);}
	.st31{fill:url(#SVGID_32_);}
	.st32{fill:url(#SVGID_33_);}
	.st33{fill:url(#SVGID_34_);}
	.st34{fill:url(#SVGID_35_);}
	.st35{fill:url(#SVGID_36_);}
	.st36{fill:url(#SVGID_37_);}
	.st37{fill:url(#SVGID_38_);}
	.st38{fill:url(#SVGID_39_);}
	.st39{fill:url(#SVGID_40_);}
	.st40{fill:url(#SVGID_41_);}
	.st41{fill:url(#SVGID_42_);}
	.st42{fill:url(#SVGID_43_);}
	.st43{fill:url(#SVGID_44_);}
	.st44{fill:url(#SVGID_45_);}
	.st45{fill:url(#SVGID_46_);}
	.st46{fill:url(#SVGID_47_);}
	.st47{fill:url(#SVGID_48_);}
	.st48{fill:url(#SVGID_49_);}
	.st49{fill:url(#SVGID_50_);}
	.st50{fill:url(#SVGID_51_);}
	.st51{fill:url(#SVGID_52_);}
	.st52{fill:url(#SVGID_53_);}
	.st53{fill:url(#SVGID_54_);}
	.st54{fill:url(#SVGID_55_);}
	.st55{fill:url(#SVGID_56_);}
	.st56{fill:url(#SVGID_57_);}
	.st57{fill:url(#SVGID_58_);}
	.st58{fill:url(#SVGID_59_);}
	.st59{fill:url(#SVGID_60_);}
	.st60{fill:url(#SVGID_61_);}
	.st61{fill:url(#SVGID_62_);}
</style>
<g>
	<linearGradient id="SVGID_1_" gradientUnits="userSpaceOnUse" x1="20.3452" y1="19.6754" x2="26.4157" y2="19.6754">
		<stop  offset="0" style="stop-color:#00E461"/>
		<stop  offset="1" style="stop-color:#00BAFB"/>
	</linearGradient>
	<rect x="20.35" y="16.64" class="st0" width="6.07" height="6.07"/>
	<linearGradient id="SVGID_2_" gradientUnits="userSpaceOnUse" x1="12.2511" y1="13.5509" x2="19.3335" y2="13.5509">
		<stop  offset="0" style="stop-color:#00E461"/>
		<stop  offset="1" style="stop-color:#00BAFB"/>
	</linearGradient>
	<polygon class="st1" points="12.25,11.53 12.25,15.57 19.33,15.57 19.33,13.4 19.33,11.53 18.32,11.53 	"/>
	<linearGradient id="SVGID_3_" gradientUnits="userSpaceOnUse" x1="13.2628" y1="19.6216" x2="19.3335" y2="19.6216">
		<stop  offset="0" style="stop-color:#00E461"/>
		<stop  offset="1" style="stop-color:#00BAFB"/>
	</linearGradient>
	<rect x="13.26" y="16.59" class="st2" width="6.07" height="6.07"/>
	<linearGradient id="SVGID_4_" gradientUnits="userSpaceOnUse" x1="14.6073" y1="8.7168" x2="25.2276" y2="8.7168">
		<stop  offset="0" style="stop-color:#00E461"/>
		<stop  offset="1" style="stop-color:#00BAFB"/>
	</linearGradient>
	<path class="st3" d="M20.98,10.04V9.99c0-0.17-0.06-0.32-0.15-0.44c0.34-0.35,2.13-2.07,2.9-0.99c0.85,1.19-1.92,2.29-1.92,2.29
		c4.62-0.05,3.55-2.91,2.54-3.82c-1.01-0.91-1.46-0.13-1.46-0.13l-2.24,2.47c-0.12-0.08-0.27-0.13-0.42-0.13H19.6
		c-0.16,0-0.3,0.05-0.42,0.13L16.94,6.9c0,0-0.46-0.79-1.46,0.13c-1.01,0.91-2.07,3.77,2.54,3.82c0,0-2.76-1.1-1.92-2.29
		c0.77-1.08,2.55,0.64,2.9,0.99c-0.09,0.12-0.15,0.28-0.15,0.44v0.05c0,0.41,0.33,0.75,0.75,0.75h0.63
		C20.64,10.78,20.98,10.45,20.98,10.04z"/>
	<linearGradient id="SVGID_5_" gradientUnits="userSpaceOnUse" x1="20.3452" y1="13.5509" x2="27.4274" y2="13.5509">
		<stop  offset="0" style="stop-color:#00E461"/>
		<stop  offset="1" style="stop-color:#00BAFB"/>
	</linearGradient>
	<polygon class="st4" points="20.35,11.53 20.35,13.4 20.35,15.57 27.43,15.57 27.43,11.53 21.36,11.53 	"/>
	<linearGradient id="SVGID_6_" gradientUnits="userSpaceOnUse" x1="-0.213" y1="17.0566" x2="40.6809" y2="17.0566">
		<stop  offset="0" style="stop-color:#00E461"/>
		<stop  offset="1" style="stop-color:#00BAFB"/>
	</linearGradient>
	<path class="st5" d="M20.23,30.2c5.39,0,10.48-1.53,14.31-4.3c3.95-2.86,6.13-6.69,6.13-10.8c0-4.11-2.18-7.94-6.13-10.8
		C30.71,1.53,25.63,0,20.23,0C14.84,0,9.76,1.53,5.92,4.3c-3.95,2.86-6.13,6.69-6.13,10.8c0,4.78,3.02,9.23,8.14,12.07
		c-0.19,0.38-0.4,0.75-0.62,1.1c-0.68,1.1-1.5,2.12-2.44,3.02l-0.1,0.09L4.7,31.5c-0.41,0.63-0.35,1.47,0.15,2.03
		c0.33,0.38,0.79,0.58,1.26,0.58c0.17,0,0.34-0.03,0.5-0.08c2.19-0.26,4.29-0.9,6.24-1.91c1.19-0.61,2.31-1.36,3.34-2.23
		C17.51,30.1,18.87,30.2,20.23,30.2z M15.47,27.4l-0.42,0.38c-1,0.89-2.1,1.65-3.28,2.26c-1.21,0.63-2.49,1.09-3.81,1.39
		c0.5-0.61,0.95-1.25,1.36-1.91c0.47-0.76,0.89-1.57,1.24-2.41l0.43-1.03l-1-0.49c-4.91-2.39-7.84-6.31-7.84-10.49
		c0-7.03,8.12-12.74,18.09-12.74S38.32,8.07,38.32,15.1c0,7.03-8.12,12.74-18.09,12.74c-1.42,0-2.84-0.12-4.21-0.35L15.47,27.4z"/>
	<linearGradient id="SVGID_7_" gradientUnits="userSpaceOnUse" x1="15.8912" y1="32.8467" x2="42.213" y2="32.8467">
		<stop  offset="0" style="stop-color:#00E461"/>
		<stop  offset="1" style="stop-color:#00BAFB"/>
	</linearGradient>
	<path class="st6" d="M42.21,29.4c0-2.13-0.94-4.1-2.53-5.71c-1.88,2.16-5.32,5.34-10.56,7.07c-5.02,1.65-9.37,1.19-11.56,0.8
		c-0.3,0.35-0.75,0.8-1.4,1.2c-0.09,0.06-0.19,0.11-0.28,0.16c1.96,3.69,6.91,6.31,12.71,6.31c1.07,0,2.11-0.09,3.11-0.26
		c0.61,0.55,1.44,1.17,2.49,1.72c1.68,0.87,3.22,1.16,4.22,1.27c0.16,0.08,0.33,0.02,0.43-0.09c0.11-0.12,0.12-0.3,0.03-0.43
		c-0.56-0.54-1.24-1.29-1.85-2.3c-0.35-0.56-0.61-1.1-0.82-1.59C39.83,35.79,42.21,32.8,42.21,29.4z"/>
</g>
</svg>
