<svg id="Layer_1" data-name="Layer 1" xmlns="http://www.w3.org/2000/svg" xmlns:xlink="http://www.w3.org/1999/xlink" viewBox="0 0 42 42"><defs><style>.cls-1{fill:url(#linear-gradient);}.cls-2{fill:url(#linear-gradient-2);}.cls-3{fill:url(#linear-gradient-3);}.cls-4{fill:url(#linear-gradient-4);}</style><linearGradient id="linear-gradient" x1="17.34" y1="14.13" x2="42.08" y2="14.13" gradientUnits="userSpaceOnUse"><stop offset="0" stop-color="#00e461"/><stop offset="1" stop-color="#00bafb"/></linearGradient><linearGradient id="linear-gradient-2" x1="-0.08" y1="26.16" x2="38.47" y2="26.16" xlink:href="#linear-gradient"/><linearGradient id="linear-gradient-3" x1="14.43" y1="36.35" x2="16.78" y2="36.35" xlink:href="#linear-gradient"/><linearGradient id="linear-gradient-4" x1="24.52" y1="12.76" x2="35.3" y2="12.76" xlink:href="#linear-gradient"/></defs><path class="cls-1" d="M40.51,2.81a53.22,53.22,0,0,1-6.39-1.52A23.05,23.05,0,0,0,29.73,0h0a23.82,23.82,0,0,0-4.65,1.4A52.22,52.22,0,0,1,18.84,3c-1.8.46-1.47,2.62-1.47,2.62s.67,8.75.95,10.19c1.31,6.88,11.24,12.41,11.24,12.41h0s10.12-5.37,11.49-12.38c.28-1.47,1-10.42,1-10.42S42.4,3.24,40.51,2.81Zm-.7,2.39c0,.06,0,.07,0,.13-.27,3.41-.77,9.19-1,10.18-.59,3-3.32,5.81-5.5,7.61a34.07,34.07,0,0,1-3.78,2.7,36.26,36.26,0,0,1-3.69-2.71c-2.16-1.83-4.84-4.63-5.42-7.62-.18-1-.66-6.65-.92-10l0-.13a1.39,1.39,0,0,1,0-.41c.47-.12,1-.23,1.53-.35a32.1,32.1,0,0,0,4.79-1.32A27.8,27.8,0,0,1,29.7,2.08a28,28,0,0,1,3.59,1.14A33,33,0,0,0,38.2,4.46l1.57.37S39.83,4.82,39.81,5.2Z"/><path class="cls-2" d="M37.66,23.86l-.12-.1a36.81,36.81,0,0,1-8.19,6.09h0S18.69,24,17.27,16.74c-.15-.81-.43-3.81-.66-6.43L.67,23.92a2.12,2.12,0,0,0-.61,2.35,2.17,2.17,0,0,0,2,1.39H5.37V40.77A1.24,1.24,0,0,0,6.62,42H14V32.46A2.46,2.46,0,0,1,16.47,30h5.46a2.46,2.46,0,0,1,2.48,2.44V42h7.36A1.24,1.24,0,0,0,33,40.77V27.66H36.3a2.15,2.15,0,0,0,2.17-2.13A2.13,2.13,0,0,0,37.66,23.86Z"/><circle class="cls-3" cx="15.6" cy="36.35" r="1.17"/><path class="cls-4" d="M33.74,7.31H31.81l-.66,3.11H29.59l.66-3.11H28.33l-.66,3.11H25.24v1.37h2.14l-.43,2H24.52v1.36h2.14L26,18.2h1.93l.65-3.07h1.55l-.65,3.07h1.93l.65-3.07h2.5V13.77H32.36l.42-2H35.3V10.42H33.07Zm-3.31,6.46H28.88l.42-2h1.56Z"/></svg>