<svg id="Layer_1" data-name="Layer 1" xmlns="http://www.w3.org/2000/svg" xmlns:xlink="http://www.w3.org/1999/xlink" viewBox="0 0 42 42"><defs><style>.cls-1{fill:url(#linear-gradient);}.cls-2{fill:url(#linear-gradient-2);}</style><linearGradient id="linear-gradient" x1="3.28" y1="21" x2="38.72" y2="21" gradientUnits="userSpaceOnUse"><stop offset="0" stop-color="#00e461"/><stop offset="1" stop-color="#00bafb"/></linearGradient><linearGradient id="linear-gradient-2" x1="19.6" y1="6.06" x2="21.52" y2="6.06" xlink:href="#linear-gradient"/></defs><path class="cls-1" d="M37.13,0H13.8a1.59,1.59,0,0,0-1.59,1.59V5H4.82A1.54,1.54,0,0,0,3.28,6.52V40.46A1.54,1.54,0,0,0,4.82,42H29.18a1.54,1.54,0,0,0,1.53-1.54V12.21h6.42a1.59,1.59,0,0,0,1.59-1.59v-9A1.59,1.59,0,0,0,37.13,0ZM23.53,4.63a2,2,0,0,1,.74-.84,2.09,2.09,0,0,1,1.12-.3,2.21,2.21,0,0,1,1.44.43,1.79,1.79,0,0,1,.61,1.27H26.28A.88.88,0,0,0,26,4.6a.84.84,0,0,0-.58-.18.8.8,0,0,0-.7.38,2.18,2.18,0,0,0-.25,1.1v.3a2,2,0,0,0,.26,1.12.9.9,0,0,0,.8.37,1,1,0,0,0,.7-.21V6.71H25.4V5.89h2v2a2,2,0,0,1-.81.5,3.68,3.68,0,0,1-1.17.19A2.1,2.1,0,0,1,23.89,8a2.45,2.45,0,0,1-.62-1.67V5.92A2.92,2.92,0,0,1,23.53,4.63ZM18.38,6a2.92,2.92,0,0,1,.27-1.29,2,2,0,0,1,.77-.87,2.21,2.21,0,0,1,1.14-.3,2.15,2.15,0,0,1,1.13.3,2,2,0,0,1,.77.86,2.73,2.73,0,0,1,.28,1.27v.23a3,3,0,0,1-.27,1.29,2,2,0,0,1-.77.86,2.25,2.25,0,0,1-2.26,0,2,2,0,0,1-.77-.83,3,3,0,0,1-.29-1.25ZM15,3.57h1.2V7.62h2.09v.93H15ZM9.44,37.41H6V35.7h3.4Zm0-4.07H6V31.63h3.4Zm0-4.07H6V27.56h3.4Zm0-4.07H6V23.49h3.4Zm6.17,12.21h-3.4V35.7h3.4Zm0-4.07h-3.4V31.63h3.4Zm0-4.07h-3.4V27.56h3.4Zm0-4.07h-3.4V23.49h3.4Zm6.17,12.21h-3.4V35.7h3.4Zm0-4.07h-3.4V31.63h3.4Zm0-4.07h-3.4V27.56h3.4Zm0-4.07h-3.4V23.49h3.4ZM28,37.41h-3.4V31.63H28Zm0-8.14h-3.4V27.56H28Zm0-4.07h-3.4V23.49H28Zm0-6.3H6V8h6.17v2.61a1.59,1.59,0,0,0,1.59,1.59H28Zm3.2-10.35H30v-5h1.2Zm5,0H35L33.2,5.45v3.1H32v-5h1.2L35,6.67V3.57h1.2Z"/><path class="cls-2" d="M20.57,7.68a.78.78,0,0,0,.7-.39,2.12,2.12,0,0,0,.25-1.11V6a2.08,2.08,0,0,0-.25-1.13.8.8,0,0,0-.71-.38c-.6,0-.92.45-.95,1.35v.37a2.14,2.14,0,0,0,.25,1.12A.78.78,0,0,0,20.57,7.68Z"/></svg>