<svg id="Layer_1" data-name="Layer 1" xmlns="http://www.w3.org/2000/svg" xmlns:xlink="http://www.w3.org/1999/xlink" viewBox="0 0 42 42"><defs><style>.cls-1{fill:url(#linear-gradient);}.cls-2{fill:url(#linear-gradient-2);}</style><linearGradient id="linear-gradient" x1="24.69" y1="10.44" x2="38.87" y2="10.44" gradientUnits="userSpaceOnUse"><stop offset="0" stop-color="#00e461"/><stop offset="1" stop-color="#00bafb"/></linearGradient><linearGradient id="linear-gradient-2" x1="3.13" y1="25.24" x2="36.65" y2="25.24" xlink:href="#linear-gradient"/></defs><path class="cls-1" d="M38.86,6.7s0-.11,0-.16V6.32s0-.09,0-.13v-.1s0-.09,0-.14a.43.43,0,0,1,0-.11l0-.09a.78.78,0,0,0,0-.16l0-.13,0-.11a.5.5,0,0,1,0-.12c0-.05,0-.11-.05-.16l0-.1s0,0,0-.08l-.06-.18,0-.08,0-.08a.85.85,0,0,0-.06-.17l0-.08,0-.08A1.54,1.54,0,0,1,38.28,4l0-.07,0-.06a1.87,1.87,0,0,0-.12-.25l0-.06-.14-.25,0,0L37.76,3l0,0-.17-.25,0,0-.19-.24v0c-.07-.08-.14-.17-.22-.25A2.61,2.61,0,0,0,36.91,2h0a7,7,0,0,0-5.12-2,6.78,6.78,0,0,0-7.09,7.09,7.65,7.65,0,0,0,.95,3.69l.11.19v0l.18.28,0,.07L30.53,19h0l1.05,1.76a.32.32,0,0,0,.27.16h0a.32.32,0,0,0,.27-.16l1-1.76h0l4.42-7.62.11-.16a1.45,1.45,0,0,1,.12-.19v0l.24-.43a7.5,7.5,0,0,0,.83-3.45C38.87,7,38.87,6.83,38.86,6.7Zm-3.11.47a.43.43,0,0,1,0,.11v.1l0,.19a.74.74,0,0,1,0,.14l0,.1a.57.57,0,0,1,0,.14l-.06.18,0,.09a.3.3,0,0,0,0,.1l-.1.21,0,.06s0,.05,0,.08-.1.17-.16.25l0,.07a2.69,2.69,0,0,1-.2.27s0,0,0,0l-.25.27a4,4,0,0,1-2.82,1.2h0a4,4,0,0,1,0-8h0a4,4,0,0,1,2.81,1.19l0,0,.24.26,0,0,.2.27,0,0a3,3,0,0,1,.17.28l0,.07V5a2.72,2.72,0,0,1,.12.25.69.69,0,0,0,0,.1l0,.09.06.17a.74.74,0,0,1,0,.14l0,.1a.83.83,0,0,1,0,.15l0,.19,0,.09s0,.08,0,.11,0,.28,0,.41S35.76,7,35.75,7.17Z"/><path class="cls-2" d="M35.46,19.12h.13l-.79-1.51c-.29.44-.58.89-.89,1.34-.18.28-.37.56-.56.83a14.32,14.32,0,0,1,1,4.39H29.67A27.56,27.56,0,0,0,29,19.12h1.22c-.36-.7-.75-1.42-1.16-2.17H28.4a17.46,17.46,0,0,0-2.34-4.78h0L26,12.07a17.83,17.83,0,0,0-3.85-3.39c-.38,0-.77-.09-1.16-.12V8.48H18.81v.08A16.69,16.69,0,0,0,5.38,17h0L5,17.54,4.2,19.12h.12A16.45,16.45,0,0,0,3.2,24.17H3.13v2.16H3.2a16.45,16.45,0,0,0,1.12,5H4.2L5,33l.31.58h0a16.63,16.63,0,0,0,13.43,8.4V42H21v-.07a16.65,16.65,0,0,0,13.44-8.4h.05l.3-.58.83-1.58h-.13a16.18,16.18,0,0,0,1.13-5h.06V24.17h-.06A16.18,16.18,0,0,0,35.46,19.12Zm-21.74-7A17.76,17.76,0,0,0,11.37,17H8.06A14.35,14.35,0,0,1,13.72,12.17Zm-7,7h4.05a26.72,26.72,0,0,0-.65,5.05H5.43A14.26,14.26,0,0,1,6.72,19.12ZM5.43,26.33h4.69a26.72,26.72,0,0,0,.65,5h-4A14.32,14.32,0,0,1,5.43,26.33Zm2.63,7.2h3.31a17.47,17.47,0,0,0,2.35,4.78A14.27,14.27,0,0,1,8.06,33.53Zm10.75,6c-2-.6-3.86-2.77-5.09-6h5.09Zm0-8.18H13.09a25,25,0,0,1-.7-5h6.42Zm0-7.2H12.39a25,25,0,0,1,.7-5.05h5.72Zm0-7.22H13.72c1.23-3.24,3.06-5.42,5.09-6Zm2.16-6c2,.59,3.87,2.77,5.09,6H21Zm0,8.18H26.7a24.31,24.31,0,0,1,.69,5.05H21Zm0,7.21h6.42a24.3,24.3,0,0,1-.69,5H21Zm0,13.22v-6h5.09C24.84,36.78,23,39,21,39.55Zm5.09-1.24a17.18,17.18,0,0,0,2.34-4.78h3.33A14.3,14.3,0,0,1,26.06,38.31Zm7-6.94H29a27.57,27.57,0,0,0,.65-5h4.69A14.33,14.33,0,0,1,33.06,31.37Z"/></svg>