<svg id="Layer_1" data-name="Layer 1" xmlns="http://www.w3.org/2000/svg" xmlns:xlink="http://www.w3.org/1999/xlink" viewBox="0 0 42 42"><defs><style>.cls-1{fill:url(#linear-gradient);}.cls-2{fill:url(#linear-gradient-2);}.cls-3{fill:url(#linear-gradient-3);}</style><linearGradient id="linear-gradient" x1="22.9" y1="6.16" x2="29.26" y2="6.16" gradientUnits="userSpaceOnUse"><stop offset="0" stop-color="#00e461"/><stop offset="1" stop-color="#00bafb"/></linearGradient><linearGradient id="linear-gradient-2" x1="12.84" y1="13.58" x2="21.35" y2="13.58" xlink:href="#linear-gradient"/><linearGradient id="linear-gradient-3" x1="0" y1="21" x2="42" y2="21" xlink:href="#linear-gradient"/></defs><path class="cls-1" d="M25.94,7.69a.2.2,0,0,1,.15-.06h0s.06,0,.13.06l3,3.07V1.56H22.9v9.18Zm2.39-5.21v6L26.9,7h0a1.09,1.09,0,0,0-.78-.34h0a1.11,1.11,0,0,0-.79.33L23.83,8.5v-6Z"/><path class="cls-2" d="M17.1,17.84a4.26,4.26,0,1,0-4.26-4.26A4.26,4.26,0,0,0,17.1,17.84Zm0-7.59a3.34,3.34,0,1,1-3.34,3.33A3.33,3.33,0,0,1,17.1,10.25Z"/><path class="cls-3" d="M40.21,30.55,42,29.4l-1.2-3.3-2.11.27a8.33,8.33,0,0,0-1.55-1.69l.45-2.08-3.18-1.49L33.1,22.79l-.36-.05V4.26a4,4,0,0,0-1.18-2.83,4.18,4.18,0,0,0-.92-.69,4.1,4.1,0,0,0-1.5-.46l-.4,0H6a4,4,0,0,0-4,4v1.3H1.11A1.11,1.11,0,0,0,0,6.67V9.92A1.11,1.11,0,0,0,1.11,11H2v1.52H1.11A1.11,1.11,0,0,0,0,13.65V16.9A1.11,1.11,0,0,0,1.11,18H2v1.52H1.11A1.11,1.11,0,0,0,0,20.64v3.24A1.11,1.11,0,0,0,1.11,25H2v1.52H1.11A1.11,1.11,0,0,0,0,27.62v3.25A1.11,1.11,0,0,0,1.11,32H2v1.65a4,4,0,0,0,4,4H25.65c.12.12.25.23.38.34l-.45,2.08,3.18,1.48,1.31-1.68a8.32,8.32,0,0,0,2.29.1l1.14,1.79,3.31-1.2-.27-2.11a8.61,8.61,0,0,0,1.69-1.55l2.08.45,1.48-3.19-1.68-1.3A8.32,8.32,0,0,0,40.21,30.55ZM24.94,25.77l-.68-.15a17.21,17.21,0,0,0-1.4-3.12c-1.57-2.71-3.61-4.2-5.76-4.2s-4.2,1.49-5.77,4.2a23.58,23.58,0,0,0-2.73,10,2,2,0,0,0,2,2.14H21.67l.7,1.92,2.11-.27c.1.15.21.29.32.43H6a3.08,3.08,0,0,1-3.07-3.08V31.05H1.11a.19.19,0,0,1-.19-.18V27.62a.2.2,0,0,1,.19-.19h1.8V24.07H1.11a.19.19,0,0,1-.19-.19V20.64a.19.19,0,0,1,.19-.19h1.8V17.09H1.11a.19.19,0,0,1-.19-.19V13.65a.19.19,0,0,1,.19-.18h1.8V10.11H1.11a.2.2,0,0,1-.19-.19V6.67a.2.2,0,0,1,.19-.19h1.8V4.26A3.08,3.08,0,0,1,6,1.18H28.74l.31,0a2.92,2.92,0,0,1,1.15.36h0a3,3,0,0,1,.71.52,3.09,3.09,0,0,1,.9,2.18v18.4a8.41,8.41,0,0,0-1,0l-1.15-1.78-3.3,1.2.27,2.11A8.06,8.06,0,0,0,24.94,25.77Zm-1.88,4A8.77,8.77,0,0,0,23,32.09l-1.78,1.15.17.47H10.61a1.08,1.08,0,0,1-1.09-1.16C10,25,13.29,19.22,17.1,19.22c2.46,0,4.7,2.41,6.11,6.17l-.35-.07L21.38,28.5Zm8.67,5.81a4.32,4.32,0,1,1,4.32-4.32A4.32,4.32,0,0,1,31.73,35.61Z"/></svg>