<svg id="Layer_1" data-name="Layer 1" xmlns="http://www.w3.org/2000/svg" xmlns:xlink="http://www.w3.org/1999/xlink" viewBox="0 0 42 42"><defs><style>.cls-1{fill:url(#linear-gradient);}.cls-2{fill:url(#linear-gradient-2);}.cls-3{fill:url(#linear-gradient-3);}.cls-4{fill:url(#linear-gradient-4);}</style><linearGradient id="linear-gradient" y1="20.47" x2="22.13" y2="20.47" gradientUnits="userSpaceOnUse"><stop offset="0" stop-color="#00e461"/><stop offset="1" stop-color="#00bafb"/></linearGradient><linearGradient id="linear-gradient-2" x1="22.51" y1="32.06" x2="42" y2="32.06" xlink:href="#linear-gradient"/><linearGradient id="linear-gradient-3" x1="6.65" y1="11.01" x2="35.01" y2="11.01" xlink:href="#linear-gradient"/><linearGradient id="linear-gradient-4" x1="9.73" y1="18.08" x2="26.85" y2="18.08" xlink:href="#linear-gradient"/></defs><path class="cls-1" d="M15,33.45a16,16,0,0,1-13.4-15A15.56,15.56,0,0,1,5.47,7.25c.13-.15.32-.31.35-.49A1.06,1.06,0,0,0,5.72,6,.9.9,0,0,0,5,5.72a1.2,1.2,0,0,0-.63.45,17.17,17.17,0,0,0-4,14.77,17.53,17.53,0,0,0,20.4,14c.48-.09.95-.21,1.42-.33l-.59-1.46A15.68,15.68,0,0,1,15,33.45Z"/><path class="cls-2" d="M40.33,31.34,42,30.26l-1.13-3.09-2,.25a7.53,7.53,0,0,0-1.45-1.58l.42-1.95-3-1.39-1.22,1.58a8,8,0,0,0-2.14-.1l-1.07-1.67-3.1,1.13.25,2A8.06,8.06,0,0,0,26,26.86l-1.94-.42-1.39,3,1.57,1.22a8,8,0,0,0-.09,2.14l-1.67,1.07L23.63,37l2-.25a8.73,8.73,0,0,0,1.45,1.58l-.42,1.94,3,1.39L30.83,40a8.06,8.06,0,0,0,2.14.09l1.08,1.67,3.09-1.12-.25-2a8.11,8.11,0,0,0,1.58-1.45l2,.42,1.39-3-1.58-1.22A8.06,8.06,0,0,0,40.33,31.34Zm-6.73,4a3.53,3.53,0,1,1,2.11-4.52A3.51,3.51,0,0,1,33.6,35.32Z"/><path class="cls-3" d="M21,2.14A16,16,0,0,1,33.13,21c-.05.22-.1.45-.16.67l1.55.15A17.51,17.51,0,0,0,21.59.69C20.68.48,19.75.36,18.82.2H16.19c-.64.1-1.29.18-1.93.3A16.8,16.8,0,0,0,7,3.7a1.14,1.14,0,0,0-.38.84c.06.69.73.81,1.44.3A15.64,15.64,0,0,1,21,2.14Z"/><path class="cls-4" d="M26.39,12.5a1.62,1.62,0,0,0-2.27,0l-7.76,7.76-3.9-3.9a1.6,1.6,0,1,0-2.26,2.27l5,5a1.59,1.59,0,0,0,2.26,0l8.9-8.89A1.62,1.62,0,0,0,26.39,12.5Z"/></svg>