<svg id="Layer_1" data-name="Layer 1" xmlns="http://www.w3.org/2000/svg" xmlns:xlink="http://www.w3.org/1999/xlink" viewBox="0 0 42 42"><defs><style>.cls-1{fill:url(#linear-gradient);}</style><linearGradient id="linear-gradient" x1="-0.12" y1="21" x2="42.12" y2="21" gradientUnits="userSpaceOnUse"><stop offset="0" stop-color="#00e461"/><stop offset="1" stop-color="#00bafb"/></linearGradient></defs><path class="cls-1" d="M42.12,10.27A10.27,10.27,0,0,0,21.83,8L18.51,7a.9.9,0,0,0-.46,0L1.55,11.18a.84.84,0,0,0-.51.39,2,2,0,0,0-.38.2,1.77,1.77,0,0,0-.78,1.48V30.32a1.79,1.79,0,0,0,.87,1.54l16.56,9.89a1.77,1.77,0,0,0,.92.25,1.93,1.93,0,0,0,.92-.25L35.7,31.83a1.82,1.82,0,0,0,.87-1.52l.09-11A10.28,10.28,0,0,0,42.12,10.27ZM17.32,39.63,1.7,30.3v-17l10,4v6.85l1.93-1.3,1.43,4.17V18.68l2.22.89ZM3.05,11.88,18.25,8l3.41,1.09a9.71,9.71,0,0,0-.07,1.21,10.25,10.25,0,0,0,2,6.1l-4.95,1.76Zm31.7,18.4L19.14,39.63V19.88l.1,0,5.67-2a10.25,10.25,0,0,0,7,2.71,10.41,10.41,0,0,0,3-.44Zm2.91-18.4h-4v4.55H30V11.88H26V8.51h4V4.08h3.67V8.51h4Z"/></svg>