<svg id="Layer_1" data-name="Layer 1" xmlns="http://www.w3.org/2000/svg" xmlns:xlink="http://www.w3.org/1999/xlink" viewBox="0 0 42 42"><defs><style>.cls-1{fill:url(#linear-gradient);}.cls-2{fill:url(#linear-gradient-2);}.cls-3{fill:url(#linear-gradient-3);}.cls-4{fill:url(#linear-gradient-4);}.cls-5{fill:url(#linear-gradient-5);}</style><linearGradient id="linear-gradient" y1="19.24" x2="33.41" y2="19.24" gradientUnits="userSpaceOnUse"><stop offset="0" stop-color="#00e461"/><stop offset="1" stop-color="#00bafb"/></linearGradient><linearGradient id="linear-gradient-2" x1="17.4" y1="26.76" x2="42" y2="26.76" xlink:href="#linear-gradient"/><linearGradient id="linear-gradient-3" x1="4.64" y1="18.15" x2="9.23" y2="18.15" xlink:href="#linear-gradient"/><linearGradient id="linear-gradient-4" x1="14.5" y1="18.15" x2="19.08" y2="18.15" xlink:href="#linear-gradient"/><linearGradient id="linear-gradient-5" x1="24.35" y1="18.15" x2="28.94" y2="18.15" xlink:href="#linear-gradient"/></defs><path class="cls-1" d="M33.41,25.85v-17a4.48,4.48,0,0,0-4.47-4.48H4.47A4.48,4.48,0,0,0,0,8.82v17a4.47,4.47,0,0,0,3.37,4.33A12.84,12.84,0,0,1,2,32a1.27,1.27,0,0,0,1.5,2,55.77,55.77,0,0,0,5.81-3.1l1-.6H28.94A4.48,4.48,0,0,0,33.41,25.85ZM9.81,28.6l-.21.14-1.14.72q-2,1.18-4,2.21a13.4,13.4,0,0,0,1-1.85l.57-1.22H4.47a2.75,2.75,0,0,1-2.75-2.75v-17A2.76,2.76,0,0,1,4.47,6.06H28.94a2.76,2.76,0,0,1,2.75,2.76v17a2.75,2.75,0,0,1-2.75,2.75Z"/><path class="cls-2" d="M39.19,15.86H35V27.74a4.11,4.11,0,0,1-4.11,4.11H17.4v0a2.8,2.8,0,0,0,2.8,2.8H34.85l.9.57a43.69,43.69,0,0,0,4.45,2.37.32.32,0,0,0,.37-.5A10.7,10.7,0,0,1,39,34.69h.18A2.8,2.8,0,0,0,42,31.89V18.67A2.81,2.81,0,0,0,39.19,15.86Z"/><circle class="cls-3" cx="6.93" cy="18.15" r="2.29"/><circle class="cls-4" cx="16.79" cy="18.15" r="2.29"/><circle class="cls-5" cx="26.64" cy="18.15" r="2.29"/></svg>