<svg id="Layer_1" data-name="Layer 1" xmlns="http://www.w3.org/2000/svg" xmlns:xlink="http://www.w3.org/1999/xlink" viewBox="0 0 42 42"><defs><style>.cls-1{fill:url(#linear-gradient);}.cls-2{fill:url(#linear-gradient-2);}.cls-3{fill:url(#linear-gradient-3);}.cls-4{fill:url(#linear-gradient-4);}.cls-5{fill:url(#linear-gradient-5);}.cls-6{fill:url(#linear-gradient-6);}.cls-7{fill:url(#linear-gradient-7);}</style><linearGradient id="linear-gradient" x1="20.35" y1="19.68" x2="26.42" y2="19.68" gradientUnits="userSpaceOnUse"><stop offset="0" stop-color="#00e461"/><stop offset="1" stop-color="#00bafb"/></linearGradient><linearGradient id="linear-gradient-2" x1="12.25" y1="13.55" x2="19.33" y2="13.55" xlink:href="#linear-gradient"/><linearGradient id="linear-gradient-3" x1="13.26" y1="19.62" x2="19.33" y2="19.62" xlink:href="#linear-gradient"/><linearGradient id="linear-gradient-4" x1="14.61" y1="8.72" x2="25.23" y2="8.72" xlink:href="#linear-gradient"/><linearGradient id="linear-gradient-5" x1="20.35" y1="13.55" x2="27.43" y2="13.55" xlink:href="#linear-gradient"/><linearGradient id="linear-gradient-6" x1="-0.21" y1="17.06" x2="40.68" y2="17.06" xlink:href="#linear-gradient"/><linearGradient id="linear-gradient-7" x1="15.89" y1="32.85" x2="42.21" y2="32.85" xlink:href="#linear-gradient"/></defs><rect class="cls-1" x="20.35" y="16.64" width="6.07" height="6.07"/><polygon class="cls-2" points="12.25 11.53 12.25 15.57 19.33 15.57 19.33 13.4 19.33 11.53 18.32 11.53 12.25 11.53"/><rect class="cls-3" x="13.26" y="16.59" width="6.07" height="6.07"/><path class="cls-4" d="M21,10v0a.78.78,0,0,0-.15-.45c.34-.34,2.13-2.06,2.89-1s-1.91,2.3-1.91,2.3c4.62,0,3.55-2.91,2.54-3.82s-1.46-.13-1.46-.13L20.66,9.38a.71.71,0,0,0-.43-.14H19.6a.68.68,0,0,0-.42.14L16.94,6.9s-.45-.78-1.46.13S13.41,10.8,18,10.85c0,0-2.77-1.1-1.92-2.3s2.55.65,2.9,1a.72.72,0,0,0-.15.45v0a.74.74,0,0,0,.74.74h.63A.75.75,0,0,0,21,10Z"/><polygon class="cls-5" points="20.34 11.53 20.34 13.4 20.34 15.57 27.43 15.57 27.43 11.53 21.36 11.53 20.34 11.53"/><path class="cls-6" d="M20.23,30.2a24.58,24.58,0,0,0,14.32-4.3c4-2.86,6.13-6.7,6.13-10.8S38.5,7.16,34.55,4.3A24.58,24.58,0,0,0,20.23,0,24.57,24.57,0,0,0,5.92,4.3C2,7.16-.21,11-.21,15.1c0,4.78,3,9.23,8.14,12.07-.2.38-.4.74-.62,1.1a15.38,15.38,0,0,1-2.44,3l-.1.1-.07.11a1.69,1.69,0,0,0,1.41,2.61,1.68,1.68,0,0,0,.5-.07,18.15,18.15,0,0,0,9.58-4.14A27.06,27.06,0,0,0,20.23,30.2Zm-4.76-2.8-.43.37A15.63,15.63,0,0,1,11.77,30,15.75,15.75,0,0,1,8,31.42a19.58,19.58,0,0,0,1.37-1.91,17.62,17.62,0,0,0,1.23-2.41l.44-1-1-.49C5.07,23.19,2.14,19.27,2.14,15.1c0-7,8.12-12.74,18.09-12.74S38.32,8.07,38.32,15.1,30.21,27.84,20.23,27.84a25.42,25.42,0,0,1-4.2-.35Z"/><path class="cls-7" d="M42.21,29.4a8.11,8.11,0,0,0-2.52-5.71,23.59,23.59,0,0,1-22.12,7.87,6.13,6.13,0,0,1-1.4,1.2l-.28.16c2,3.69,6.91,6.31,12.71,6.31A19.68,19.68,0,0,0,31.71,39a12.44,12.44,0,0,0,2.49,1.71A12,12,0,0,0,38.42,42a.36.36,0,0,0,.43-.08.38.38,0,0,0,0-.44A11.64,11.64,0,0,1,37,39.14a11.91,11.91,0,0,1-.81-1.58C39.83,35.79,42.21,32.8,42.21,29.4Z"/></svg>