<svg id="Layer_1" data-name="Layer 1" xmlns="http://www.w3.org/2000/svg" xmlns:xlink="http://www.w3.org/1999/xlink" viewBox="0 0 42 42"><defs><style>.cls-1{fill:url(#linear-gradient);}.cls-2{fill:url(#linear-gradient-2);}.cls-3{fill:url(#linear-gradient-3);}.cls-4{fill:url(#linear-gradient-4);}.cls-5{fill:url(#linear-gradient-5);}.cls-6{fill:url(#linear-gradient-6);}.cls-7{fill:url(#linear-gradient-7);}</style><linearGradient id="linear-gradient" x1="39.27" y1="19.14" x2="42.21" y2="19.14" gradientUnits="userSpaceOnUse"><stop offset="0" stop-color="#00e461"/><stop offset="1" stop-color="#00bafb"/></linearGradient><linearGradient id="linear-gradient-2" x1="-0.21" y1="21" x2="40.75" y2="21" xlink:href="#linear-gradient"/><linearGradient id="linear-gradient-3" x1="30.33" y1="5.32" x2="34.61" y2="5.32" xlink:href="#linear-gradient"/><linearGradient id="linear-gradient-4" x1="26.43" y1="3.9" x2="29.57" y2="3.9" xlink:href="#linear-gradient"/><linearGradient id="linear-gradient-5" x1="16.5" y1="18.76" x2="20.05" y2="18.76" xlink:href="#linear-gradient"/><linearGradient id="linear-gradient-6" x1="24.67" y1="18.76" x2="28.23" y2="18.76" xlink:href="#linear-gradient"/><linearGradient id="linear-gradient-7" x1="18.1" y1="24.5" x2="27.1" y2="24.5" xlink:href="#linear-gradient"/></defs><path class="cls-1" d="M42,18.35l-.69-.69-2.07,2.12.66.67c.36.35,1.12.17,1.7-.41S42.39,18.71,42,18.35Z"/><path class="cls-2" d="M40.75,17,38,14.29v0a1.1,1.1,0,0,0-.26-1,1.61,1.61,0,0,0-1.19-.41l-.15-.15a8.17,8.17,0,1,0-15-4.52A8.47,8.47,0,0,0,23,12.85H9.54C9.33,11.9,9.12,11,8.91,10c-.06-.26-.1-.53-.18-.8a1.1,1.1,0,0,0-1.11-.87H.89a1,1,0,0,0-.79.35A1.11,1.11,0,0,0,0,10.17a1.85,1.85,0,0,0,1.26.46c.43,0,.87,0,1.31,0H6.74q2,9.14,4,18.21l-.26.15a3.34,3.34,0,0,0-1.69,3.63,3.26,3.26,0,0,0,2.85,2.62,19.26,19.26,0,0,0,2.15,0A3.46,3.46,0,0,0,11,38.85a3.34,3.34,0,0,0,6.61.48,3.66,3.66,0,0,0,0-1.36,3.16,3.16,0,0,0-.52-1.22,4.06,4.06,0,0,0-1-1A7,7,0,0,0,15,35.3h14.8a3.42,3.42,0,0,0-2.93,3.49A3.36,3.36,0,1,0,33,36.72a3.52,3.52,0,0,0-2.22-1.43c.56,0,1.12,0,1.68,0a1.12,1.12,0,1,0,0-2.24h-20C11.53,33,11,32.61,11,31.9s.52-1.11,1.42-1.11H32.2a1.22,1.22,0,0,0,1.4-1.05q1.76-6.1,3.5-12.21l1.58,1.59ZM31.34,38.63a1.12,1.12,0,1,1-1.13-1.11A1.14,1.14,0,0,1,31.34,38.63Zm-15.85,0a1.15,1.15,0,0,1-1.12,1.13,1.12,1.12,0,1,1,1.12-1.13ZM29.65,2.54A5.75,5.75,0,1,1,23.9,8.28,5.74,5.74,0,0,1,29.65,2.54Zm2,26H13q-1.48-6.69-3-13.42H25.29a7.82,7.82,0,0,0,4.36,1.23A8.4,8.4,0,0,0,34,15.11h.71l.61.61C34.06,20,32.84,24.26,31.62,28.53Z"/><path class="cls-3" d="M30.56,3.89a4.52,4.52,0,0,1,3.49,3.22.28.28,0,0,0,.27.21h.08A.29.29,0,0,0,34.6,7,5.16,5.16,0,0,0,33,4.44a5.24,5.24,0,0,0-2.32-1.11.29.29,0,0,0-.11.56Z"/><path class="cls-4" d="M26.72,4.66a.32.32,0,0,0,.2-.08,3.16,3.16,0,0,1,1.13-.7,3,3,0,0,1,1.22-.17.29.29,0,1,0,0-.57,3.66,3.66,0,0,0-2.78,1,.28.28,0,0,0,0,.4A.29.29,0,0,0,26.72,4.66Z"/><circle class="cls-5" cx="18.27" cy="18.76" r="1.78"/><circle class="cls-6" cx="26.45" cy="18.76" r="1.78"/><path class="cls-7" d="M26.93,24.82a7.48,7.48,0,0,0-8.66,0,.42.42,0,0,0-.1.58.43.43,0,0,0,.58.1,6.64,6.64,0,0,1,3.79-1.23h.06a6.66,6.66,0,0,1,3.85,1.23.42.42,0,0,0,.48-.68Z"/></svg>