<svg id="Layer_1" data-name="Layer 1" xmlns="http://www.w3.org/2000/svg" xmlns:xlink="http://www.w3.org/1999/xlink" viewBox="0 0 42 42"><defs><style>.cls-1{fill:url(#linear-gradient);}.cls-2{fill:url(#linear-gradient-2);}.cls-3{fill:url(#linear-gradient-3);}.cls-4{fill:url(#linear-gradient-4);}</style><linearGradient id="linear-gradient" x1="38.23" y1="26.93" x2="42" y2="26.93" gradientUnits="userSpaceOnUse"><stop offset="0" stop-color="#00e461"/><stop offset="1" stop-color="#00bafb"/></linearGradient><linearGradient id="linear-gradient-2" x1="0" y1="21" x2="40.13" y2="21" xlink:href="#linear-gradient"/><linearGradient id="linear-gradient-3" x1="26.8" y1="9.03" x2="32.27" y2="9.03" xlink:href="#linear-gradient"/><linearGradient id="linear-gradient-4" x1="21.82" y1="7.18" x2="25.83" y2="7.18" xlink:href="#linear-gradient"/></defs><path class="cls-1" d="M41.77,25.9l-.89-.9-2.65,2.75.85.86c.46.47,1.43.23,2.17-.52S42.22,26.36,41.77,25.9Z"/><path class="cls-2" d="M40.13,24.15l-2.24-2.28V18.82A3.65,3.65,0,0,0,36,15.61a10.59,10.59,0,0,0-10-13.47A10.46,10.46,0,0,0,15.48,12.72a11.66,11.66,0,0,0,.3,2.46H3.59A3.62,3.62,0,0,0,0,18.82V36.23a3.61,3.61,0,0,0,3.59,3.63H34.3a3.61,3.61,0,0,0,3.59-3.63V26.47Zm-3.05-5.33v2.23l-2.19-2.21,1.82-1.42A2.86,2.86,0,0,1,37.08,18.82Zm-.87-2-1,.77c.18-.37.35-.75.5-1.15A2.86,2.86,0,0,1,36.21,16.78ZM25.93,5.42a7.45,7.45,0,1,1-7.35,7.45A7.4,7.4,0,0,1,25.93,5.42ZM3.59,16H16a10.32,10.32,0,0,0,9.92,7.3A11,11,0,0,0,28.24,23l-9.18,7.2L1.68,16.77A2.79,2.79,0,0,1,3.59,16ZM.81,36.23V18.82a2.76,2.76,0,0,1,.37-1.4L15.24,28.3,1.43,38A2.82,2.82,0,0,1,.81,36.23ZM34.3,39H3.59A2.69,2.69,0,0,1,2,38.56l13.88-9.74,3.14,2.43,3.25-2.54L35.8,38.6A2.77,2.77,0,0,1,34.3,39Zm2.12-1L23,28.18l7.75-6.07A10.17,10.17,0,0,0,32,21.33l5.09,5.15v9.75A2.81,2.81,0,0,1,36.42,38Z"/><path class="cls-3" d="M27.1,7.18a5.73,5.73,0,0,1,2.63,1.27,6,6,0,0,1,1.83,2.9.36.36,0,0,0,.35.27l.1,0a.36.36,0,0,0,.25-.45A6.68,6.68,0,0,0,30.2,7.89a6.57,6.57,0,0,0-3-1.44.38.38,0,0,0-.43.3A.36.36,0,0,0,27.1,7.18Z"/><path class="cls-4" d="M22.18,8.17a.37.37,0,0,0,.26-.1,3.94,3.94,0,0,1,3-1.13.37.37,0,0,0,0-.74,4.86,4.86,0,0,0-1.85.27,4.77,4.77,0,0,0-1.71,1.06.39.39,0,0,0,0,.53A.38.38,0,0,0,22.18,8.17Z"/></svg>