<svg id="Layer_1" data-name="Layer 1" xmlns="http://www.w3.org/2000/svg" xmlns:xlink="http://www.w3.org/1999/xlink" viewBox="0 0 48 48"><defs><style>.cls-1{fill:url(#linear-gradient);}.cls-2{fill:url(#linear-gradient-2);}.cls-3{fill:url(#linear-gradient-3);}</style><linearGradient id="linear-gradient" x1="0.49" y1="41.47" x2="47.51" y2="41.47" gradientUnits="userSpaceOnUse"><stop offset="0" stop-color="#00bafb"/><stop offset="1" stop-color="#00e461"/></linearGradient><linearGradient id="linear-gradient-2" x1="16.12" y1="2.76" x2="31.88" y2="2.76" xlink:href="#linear-gradient"/><linearGradient id="linear-gradient-3" x1="6.01" y1="21.9" x2="41.99" y2="21.9" xlink:href="#linear-gradient"/></defs><path class="cls-1" d="M46.78,35H42.3a.73.73,0,0,0-.73.72v6.38H6.43V35.67A.73.73,0,0,0,5.7,35H1.22a.73.73,0,0,0-.73.72v11.6a.73.73,0,0,0,.73.73H46.78a.73.73,0,0,0,.73-.73V35.67A.73.73,0,0,0,46.78,35Z"/><rect class="cls-2" x="16.12" width="15.77" height="5.52" rx="0.85"/><path class="cls-3" d="M14.39,26.78l8.15,9.55a2.15,2.15,0,0,0,2.92,0l8.15-9.55,8.15-9.56c.65-.76-.16-1.71-1.46-1.71H31.75V7.62A.72.72,0,0,0,31,6.9H16.73a.73.73,0,0,0-.73.72v7.89H7.7c-1.29,0-2.11,1-1.46,1.71Z"/></svg>