<svg id="Layer_1" data-name="Layer 1" xmlns="http://www.w3.org/2000/svg" xmlns:xlink="http://www.w3.org/1999/xlink" viewBox="0 0 48 48"><defs><style>.cls-1{fill:url(#linear-gradient);}.cls-2{fill:url(#linear-gradient-2);}.cls-3{fill:url(#linear-gradient-3);}.cls-4{fill:#fff;}.cls-5{fill:url(#linear-gradient-4);}</style><linearGradient id="linear-gradient" x1="-759.52" y1="-86.45" x2="-738.15" y2="-86.45" gradientTransform="translate(754.74 -167.6) rotate(-22.51)" gradientUnits="userSpaceOnUse"><stop offset="0" stop-color="#00bafb"/><stop offset="1" stop-color="#00e461"/></linearGradient><linearGradient id="linear-gradient-2" x1="2039.12" y1="-2146.78" x2="2060.5" y2="-2146.78" gradientTransform="matrix(0.16, 0.99, -0.99, 0.16, -2441.06, -1659.98)" xlink:href="#linear-gradient"/><linearGradient id="linear-gradient-3" x1="646.92" y1="-79.48" x2="668.29" y2="-79.48" gradientTransform="translate(-617.79 -94.37) rotate(15.7)" xlink:href="#linear-gradient"/><linearGradient id="linear-gradient-4" x1="13.42" y1="22.09" x2="36.58" y2="22.09" gradientTransform="matrix(1, 0, 0, 1, 0, 0)" xlink:href="#linear-gradient"/></defs><path class="cls-1" d="M36.72,36l-.33.65a7.2,7.2,0,0,1-7.52,3.85,31.22,31.22,0,0,1-3.75-1.09c.15-.19.16-.21.18-.22.63-.27,1.27-.53,1.9-.81A1.82,1.82,0,0,0,28.25,36a1.85,1.85,0,0,0-2.44-1c-2.08.84-4.14,1.7-6.2,2.57a1.79,1.79,0,0,0-1,2.42c.84,2.1,1.71,4.18,2.59,6.26a1.74,1.74,0,0,0,1.68,1.11,1.81,1.81,0,0,0,1.7-2.52c-.25-.69-.55-1.36-.88-2.17.74.31,1.34.58,1.94.8a11.31,11.31,0,0,0,8.84-.19,10.92,10.92,0,0,0,5.57-5.72A1.84,1.84,0,1,0,36.72,36Z"/><path class="cls-2" d="M7.92,26.91l-.56-.47a7.19,7.19,0,0,1-2-8.2,29.93,29.93,0,0,1,1.91-3.4c.16.19.18.2.18.22.12.68.23,1.36.35,2A1.83,1.83,0,0,0,9.9,18.67a1.85,1.85,0,0,0,1.51-2.15q-.51-3.31-1.08-6.62A1.8,1.8,0,0,0,8.21,8.36q-3.35.53-6.68,1.09A1.72,1.72,0,0,0,.06,10.82a1.81,1.81,0,0,0,2.05,2.24c.74-.09,1.46-.22,2.32-.35-.47.65-.87,1.16-1.23,1.7a11.3,11.3,0,0,0-1.84,8.65,10.86,10.86,0,0,0,4.28,6.73,1.84,1.84,0,1,0,2.28-2.88Z"/><path class="cls-3" d="M47.93,6.88A1.76,1.76,0,0,0,47.3,5a1.82,1.82,0,0,0-2.9.92c-.23.7-.41,1.42-.65,2.25-.39-.7-.69-1.28-1-1.83A11.27,11.27,0,0,0,35.65,1a10.86,10.86,0,0,0-7.91,1A1.83,1.83,0,1,0,29.4,5.32l.66-.3a7.17,7.17,0,0,1,8.28,1.62,31.4,31.4,0,0,1,2.28,3.17c-.23.06-.26.08-.27.07-.67-.18-1.33-.37-2-.54a1.83,1.83,0,1,0-1,3.52c2.15.63,4.3,1.23,6.46,1.82A1.8,1.8,0,0,0,46.1,13.4C46.72,11.23,47.33,9.05,47.93,6.88Z"/><path class="cls-4" d="M35.4,17.8,34,15.3a.73.73,0,0,0-1-.18l-1.44.82h0a9.42,9.42,0,0,0-2.21-1.73l.43-1.61a.66.66,0,0,0-.47-.82L26.51,11a.67.67,0,0,0-.82.47l-.42,1.6h0a7.77,7.77,0,0,0-2.77.34L21.68,12a.72.72,0,0,0-.95-.26l-2.49,1.44c-.32.18-.29.54-.11.86L19,15.49h0a8,8,0,0,0-1.78,2.25l-1.66-.4a.68.68,0,0,0-.82.47L14,20.59a.66.66,0,0,0,.47.82l1.6.44h0a7.72,7.72,0,0,0,.36,2.79L15,25.47a.57.57,0,0,0-.18.84L16.2,28.8A.52.52,0,0,0,17,29l1.43-.82h0A7.8,7.8,0,0,0,20.66,30l-.41,1.63a.67.67,0,0,0,.47.82l2.79.75a.68.68,0,0,0,.82-.48l.45-1.6,0,0a8,8,0,0,0,2.84-.39l.83,1.44c.18.32.43.48.75.3L31.74,31a.68.68,0,0,0,.3-.9l-.83-1.44h0a7.45,7.45,0,0,0,1.7-2.2l1.58.44a.66.66,0,0,0,.82-.47l.75-2.78a.67.67,0,0,0-.48-.82L34,22.33l0,0a8.09,8.09,0,0,0-.37-2.82L35,18.66C35.34,18.48,35.58,18.12,35.4,17.8ZM21.74,19.51a4,4,0,0,1,1.2-1,4.08,4.08,0,0,1,1.86-.55h.5l.2,0h.1l.39.08.09,0,.19.06.1,0,.19.07.09,0,.13.06.14.07.17.09.23.15.11.07.16.13.23.19.15.15a4,4,0,0,1,.63.83,4.09,4.09,0,0,1,.54,1.76c0,.11,0,.21,0,.31a1.41,1.41,0,0,1,0,.2,1.21,1.21,0,0,1,0,.19,4.33,4.33,0,0,1-.08.5c0,.06,0,.13,0,.19l-.09.29-.07.18a.36.36,0,0,0,0,.09c0,.06-.06.13-.09.18s-.09.18-.14.27l-.1.17a4.09,4.09,0,0,1-1.41,1.33,4.18,4.18,0,0,1-1.57.53l-.2,0a4,4,0,0,1-.6,0h-.2l-.09,0-.3-.05a4.14,4.14,0,0,1-2.71-2,4.2,4.2,0,0,1-.52-1.58,4,4,0,0,1,0-.69,1.64,1.64,0,0,1,0-.23,3.57,3.57,0,0,1,.1-.57,2.72,2.72,0,0,1,.18-.55l0-.09.09-.18.09-.18a2.39,2.39,0,0,1,.21-.34.76.76,0,0,1,.08-.11Z"/><path class="cls-5" d="M23.68,33.67a1,1,0,0,1-.3,0l-2.79-.75a1.17,1.17,0,0,1-.82-1.43l.31-1.26a8.33,8.33,0,0,1-1.75-1.36l-1.09.63a1,1,0,0,1-1.47-.41l-1.44-2.5A1.05,1.05,0,0,1,14.7,25l1.1-.63a8,8,0,0,1-.28-2.18l-1.23-.33a1.22,1.22,0,0,1-.71-.55,1.15,1.15,0,0,1-.11-.89l.75-2.78a1.17,1.17,0,0,1,.54-.71,1.2,1.2,0,0,1,.89-.11l1.28.3a8.1,8.1,0,0,1,1.4-1.76l-.63-1.1A1.06,1.06,0,0,1,18,12.75l2.49-1.43a1.21,1.21,0,0,1,1.63.45l.63,1.09a7.77,7.77,0,0,1,2.14-.26l.33-1.22a1.17,1.17,0,0,1,1.43-.82l2.78.75a1.16,1.16,0,0,1,.82,1.43L29.91,14a10.12,10.12,0,0,1,1.72,1.34l1.11-.64a1.33,1.33,0,0,1,1-.13,1.12,1.12,0,0,1,.66.5l1.43,2.5a1.14,1.14,0,0,1-.56,1.55l-1.09.63A8.5,8.5,0,0,1,34.47,22l1.25.34a1.14,1.14,0,0,1,.7.55,1.16,1.16,0,0,1,.12.89l-.75,2.78a1.18,1.18,0,0,1-1.43.83L33.15,27a7.44,7.44,0,0,1-1.31,1.7l.63,1.1A1.18,1.18,0,0,1,32,31.38l-2.5,1.44a1,1,0,0,1-1.43-.48l-.63-1.1a8.5,8.5,0,0,1-2.26.3l-.36,1.27a1.2,1.2,0,0,1-1.13.86Zm-5.15-6.11.28.3a7.11,7.11,0,0,0,2.09,1.65l.34.19-.51,2a.18.18,0,0,0,.12.21l2.79.75a.24.24,0,0,0,.13,0,.26.26,0,0,0,.08-.11l.5-1.78.28-.2.21,0a7.64,7.64,0,0,0,2.67-.36l.39-.13,1,1.79c.06.11.1.13.1.13l2.47-1.45c.09-.06.15-.16.11-.22l-1-1.79.31-.28a7,7,0,0,0,1.59-2.06l.19-.35,2,.55a.16.16,0,0,0,.2-.12l.75-2.78a.17.17,0,0,0,0-.13.2.2,0,0,0-.11-.08l-1.76-.49-.22-.27v-.21a7.43,7.43,0,0,0-.35-2.65L33,19.26l1.79-1A.48.48,0,0,0,35,18l-1.43-2.49a.32.32,0,0,0-.29,0l-1.78,1-.28-.28a9.19,9.19,0,0,0-2.09-1.63l-.34-.19.53-2a.24.24,0,0,0,0-.13.14.14,0,0,0-.1-.07l-2.78-.76a.16.16,0,0,0-.2.12L25.81,13l.48.64-1,0a7,7,0,0,0-2.59.32l-.39.12-1-1.79a.2.2,0,0,0-.13-.08.17.17,0,0,0-.14,0l-2.49,1.43a.6.6,0,0,0,.07.18l1,1.79-.3.28A7.13,7.13,0,0,0,17.62,18l-.19.33-2-.48a.17.17,0,0,0-.22.11l-.75,2.78a.19.19,0,0,0,.12.21l1.79.54.19.15v.26a7.37,7.37,0,0,0,.33,2.62l.13.38-1.79,1s0,.08,0,.15l1.44,2.49L17,29l-.25-.43ZM25,26.73l-.33,0-.23,0h-.09L24,26.62a4.67,4.67,0,0,1-3.63-4,5.08,5.08,0,0,1,0-.78,2,2,0,0,1,0-.25,4.59,4.59,0,0,1,.31-1.26l0-.11c0-.06.06-.12.09-.19l.1-.2a3,3,0,0,1,.24-.38l.18-.25h0a4.73,4.73,0,0,1,3.42-1.77h.57l.22,0,.11,0,.44.08.11,0,.21.06.1,0,.22.08.09,0,.31.15.19.1.26.16.12.09.18.13.26.23.17.16a4.54,4.54,0,0,1,.7.93,4.63,4.63,0,0,1,.61,2c0,.11,0,.22,0,.34v.22a1.85,1.85,0,0,1,0,.23c0,.18-.05.36-.09.55a2.09,2.09,0,0,1-.05.21c0,.11-.06.21-.1.32l-.21.51c-.06.11-.11.21-.17.3a1.51,1.51,0,0,1-.12.2,4.59,4.59,0,0,1-3.33,2.07l-.22,0Zm.09-8.3h-.27a3.67,3.67,0,0,0-1.64.48,3.81,3.81,0,0,0-1.05.91L22,20a2.82,2.82,0,0,0-.18.29l-.16.32a5.32,5.32,0,0,0-.19.56,4,4,0,0,0-.09.5c0,.06,0,.13,0,.2a3.11,3.11,0,0,0,0,.61,3.46,3.46,0,0,0,.46,1.39,3.66,3.66,0,0,0,2.38,1.75l.26.05.26,0a4.68,4.68,0,0,0,.53,0l.18,0a3.59,3.59,0,0,0,1.37-.46,3.66,3.66,0,0,0,1.24-1.17l.09-.15c.05-.08.09-.16.13-.24l.17-.4.07-.25,0-.17a2.14,2.14,0,0,0,.07-.43l0-.35a2.44,2.44,0,0,0,0-.27,3.69,3.69,0,0,0-1-2.28l-.13-.13-.2-.17L27,19.05l-.2-.12-.39-.2-.24-.1L26,18.56a2.85,2.85,0,0,0-.44-.09Z"/></svg>