<svg id="Layer_1" data-name="Layer 1" xmlns="http://www.w3.org/2000/svg" xmlns:xlink="http://www.w3.org/1999/xlink" viewBox="0 0 48 48"><defs><style>.cls-1{fill:url(#linear-gradient);}.cls-2{fill:#fff;}.cls-3{fill:url(#linear-gradient-2);}.cls-4{fill:url(#linear-gradient-3);}</style><linearGradient id="linear-gradient" x1="2.68" y1="25.15" x2="48" y2="25.15" gradientUnits="userSpaceOnUse"><stop offset="0" stop-color="#00bafb"/><stop offset="1" stop-color="#00e461"/></linearGradient><linearGradient id="linear-gradient-2" x1="0" y1="23.25" x2="46.12" y2="23.25" xlink:href="#linear-gradient"/><linearGradient id="linear-gradient-3" x1="7.31" y1="22.8" x2="37.69" y2="22.8" gradientUnits="userSpaceOnUse"><stop offset="0" stop-color="#03b8f9"/><stop offset="1" stop-color="#02e261"/></linearGradient></defs><rect class="cls-1" x="2.68" y="7.11" width="45.32" height="36.08" rx="3.41"/><rect class="cls-2" x="0.4" y="5.21" width="45.32" height="36.08" rx="3.41"/><path class="cls-3" d="M42.31,41.69H3.81A3.82,3.82,0,0,1,0,37.88V8.62A3.82,3.82,0,0,1,3.81,4.81h38.5a3.82,3.82,0,0,1,3.81,3.81V37.88A3.82,3.82,0,0,1,42.31,41.69ZM3.81,5.61a3,3,0,0,0-3,3V37.88a3,3,0,0,0,3,3h38.5a3,3,0,0,0,3-3V8.62a3,3,0,0,0-3-3Z"/><path class="cls-4" d="M36.55,23.78a1.14,1.14,0,1,0,0-2.27h-3.7v-6.7h3.7a1.14,1.14,0,1,0,0-2.27h-3.7V8.74a1.14,1.14,0,0,0-2.27,0v3.8h-6.7V8.74a1.14,1.14,0,0,0-2.27,0v3.8H14.9V8.74a1.14,1.14,0,0,0-2.27,0v3.8H8.44a1.14,1.14,0,0,0,0,2.27h4.19v6.7H8.44a1.14,1.14,0,0,0,0,2.27h4.19v6.71H8.44a1.14,1.14,0,0,0,0,2.27h4.19v4.09a1.14,1.14,0,0,0,2.27,0V32.76h6.71v4.09a1.14,1.14,0,0,0,2.27,0V32.76h6.7v4.09a1.14,1.14,0,0,0,2.27,0V32.76h3.7a1.14,1.14,0,1,0,0-2.27h-3.7V23.78Zm-6-9v6.7h-6.7v-6.7Zm-15.68,0h6.71v6.7H14.9Zm0,15.68V23.78h6.71v6.71Zm15.68,0h-6.7V23.78h6.7Z"/></svg>