<svg id="Layer_1" data-name="Layer 1" xmlns="http://www.w3.org/2000/svg" xmlns:xlink="http://www.w3.org/1999/xlink" viewBox="0 0 48 48"><defs><style>.cls-1{fill:url(#linear-gradient);}.cls-2{fill:#fff;}.cls-3{fill:url(#linear-gradient-2);}.cls-4{fill:url(#linear-gradient-3);}</style><linearGradient id="linear-gradient" y1="31.42" x2="48" y2="31.42" gradientUnits="userSpaceOnUse"><stop offset="0" stop-color="#00bafb"/><stop offset="1" stop-color="#00e461"/></linearGradient><linearGradient id="linear-gradient-2" x1="20.58" y1="20.62" x2="44.4" y2="20.62" xlink:href="#linear-gradient"/><linearGradient id="linear-gradient-3" x1="26.06" y1="30.47" x2="38.88" y2="30.47" xlink:href="#linear-gradient"/></defs><path class="cls-1" d="M40.33,29.34A7.67,7.67,0,0,0,35.57,31c0-.16,0-.32,0-.49a12.33,12.33,0,0,0-24-3.94A9.21,9.21,0,1,0,9.21,44.67H40.33a7.67,7.67,0,1,0,0-15.33Z"/><path class="cls-2" d="M40,18.37h3.35a.56.56,0,0,0,.43-.93L32.93,4.6a.57.57,0,0,0-.87,0L21.22,17.44a.56.56,0,0,0,.43.93H25a.57.57,0,0,1,.57.57V36.27a.56.56,0,0,0,.57.57H38.86a.56.56,0,0,0,.57-.57V18.94A.57.57,0,0,1,40,18.37Z"/><path class="cls-3" d="M38.86,37.34H26.12a1.07,1.07,0,0,1-1.06-1.07V18.94l-3.41-.07a1.06,1.06,0,0,1-1-.61,1.08,1.08,0,0,1,.16-1.14L31.68,4.28a1.06,1.06,0,0,1,.81-.38h0a1.07,1.07,0,0,1,.82.38L44.15,17.12a1.06,1.06,0,0,1-.82,1.75H40a.07.07,0,0,0-.07.07V36.27A1.07,1.07,0,0,1,38.86,37.34ZM32.54,4.92h-.1L21.6,17.76l0,.11H25a1.07,1.07,0,0,1,1.07,1.07V36.27l12.8.07.07-17.4A1.07,1.07,0,0,1,40,17.87h3.33l.06-.11Z"/><rect class="cls-4" x="26.06" y="29.52" width="12.82" height="1.9"/></svg>