<svg id="Layer_1" data-name="Layer 1" xmlns="http://www.w3.org/2000/svg" xmlns:xlink="http://www.w3.org/1999/xlink" viewBox="0 0 48 48"><defs><style>.cls-1{fill:url(#linear-gradient);}.cls-2{fill:#fff;}.cls-3{fill:url(#linear-gradient-2);}.cls-4{fill:url(#linear-gradient-3);}</style><linearGradient id="linear-gradient" x1="11.87" y1="24.04" x2="36.04" y2="24.04" gradientUnits="userSpaceOnUse"><stop offset="0" stop-color="#00bafb"/><stop offset="1" stop-color="#00e461"/></linearGradient><linearGradient id="linear-gradient-2" x1="0" y1="24" x2="48" y2="24" xlink:href="#linear-gradient"/><linearGradient id="linear-gradient-3" x1="17.45" y1="23.96" x2="30.64" y2="23.96" xlink:href="#linear-gradient"/></defs><circle class="cls-1" cx="23.96" cy="24.04" r="12.08"/><path class="cls-2" d="M24,8.84A25.92,25.92,0,0,0,.44,24a25.89,25.89,0,0,0,47.12,0A25.92,25.92,0,0,0,24,8.84Zm0,25.9A10.74,10.74,0,1,1,34.74,24,10.74,10.74,0,0,1,24,34.74Z"/><path class="cls-3" d="M24,39.56A26.34,26.34,0,0,1,.08,24.17L0,24l.08-.17a26.28,26.28,0,0,1,47.84,0L48,24l-.08.17A26.34,26.34,0,0,1,24,39.56ZM.88,24a25.49,25.49,0,0,0,46.24,0A25.49,25.49,0,0,0,.88,24ZM24,35.14A11.14,11.14,0,1,1,35.14,24,11.16,11.16,0,0,1,24,35.14Zm0-21.48A10.34,10.34,0,1,0,34.34,24,10.35,10.35,0,0,0,24,13.66Z"/><path class="cls-2" d="M24,17.76a6.1,6.1,0,0,0-2.56.56,2.53,2.53,0,0,1-1.09,4.82A2.55,2.55,0,0,1,18.2,21.9,6.06,6.06,0,0,0,17.85,24,6.2,6.2,0,1,0,24,17.76Z"/><path class="cls-4" d="M24,30.55a6.59,6.59,0,0,1-6.21-8.79l.28-.8.43.73a2.17,2.17,0,0,0,1.85,1.06,2.14,2.14,0,0,0,2.14-2.14,2.17,2.17,0,0,0-1.22-1.94l-.77-.36.78-.36A6.53,6.53,0,0,1,24,17.36a6.6,6.6,0,1,1,0,13.19Zm-5.66-7.81A5.56,5.56,0,0,0,18.25,24,5.8,5.8,0,1,0,24,18.16a6.08,6.08,0,0,0-1.7.25,3,3,0,0,1,1,2.2,2.93,2.93,0,0,1-2.93,2.93A2.9,2.9,0,0,1,18.38,22.74Z"/></svg>