<svg id="Layer_1" data-name="Layer 1" xmlns="http://www.w3.org/2000/svg" xmlns:xlink="http://www.w3.org/1999/xlink" viewBox="0 0 48 48"><defs><style>.cls-1{fill:url(#linear-gradient);}.cls-2{fill:url(#linear-gradient-2);}.cls-3{fill:url(#linear-gradient-3);}.cls-4{fill:url(#linear-gradient-4);}.cls-5{fill:#fff;}.cls-6{fill:url(#linear-gradient-5);}.cls-7{fill:url(#linear-gradient-6);}.cls-8{fill:url(#linear-gradient-7);}</style><linearGradient id="linear-gradient" x1="10.74" y1="5.77" x2="43.33" y2="5.77" gradientUnits="userSpaceOnUse"><stop offset="0" stop-color="#00bafb"/><stop offset="1" stop-color="#00e461"/></linearGradient><linearGradient id="linear-gradient-2" x1="0.42" y1="5.47" x2="3.35" y2="5.47" xlink:href="#linear-gradient"/><linearGradient id="linear-gradient-3" x1="0.05" y1="15.68" x2="4.92" y2="15.68" xlink:href="#linear-gradient"/><linearGradient id="linear-gradient-4" x1="0" y1="26.77" x2="4.86" y2="26.77" xlink:href="#linear-gradient"/><linearGradient id="linear-gradient-5" x1="10.74" y1="27.26" x2="23.92" y2="27.26" xlink:href="#linear-gradient"/><linearGradient id="linear-gradient-6" x1="10.74" y1="16.51" x2="43.33" y2="16.51" xlink:href="#linear-gradient"/><linearGradient id="linear-gradient-7" x1="18.71" y1="31.04" x2="48" y2="31.04" xlink:href="#linear-gradient"/></defs><rect class="cls-1" x="10.74" y="2.93" width="32.59" height="5.67" rx="2.84"/><polygon class="cls-2" points="1.6 8.63 3.35 8.63 3.35 2.31 3.26 2.31 1.6 2.31 0.41 2.31 0.41 3.77 1.6 3.77 1.6 8.63"/><path class="cls-3" d="M2.83,17.43l1-.94a3.77,3.77,0,0,0,.55-.62,2.21,2.21,0,0,0,.32-.63,2.48,2.48,0,0,0,.09-.68,2.14,2.14,0,0,0-.28-1.12,1.81,1.81,0,0,0-.8-.72,2.73,2.73,0,0,0-1.23-.25,2.93,2.93,0,0,0-1.41.32,2.53,2.53,0,0,0-1,.94l1.16,1a2.25,2.25,0,0,1,.55-.61A.94.94,0,0,1,2.32,14a.76.76,0,0,1,.53.18.6.6,0,0,1,.2.49.67.67,0,0,1,0,.24.71.71,0,0,1-.13.24,1.9,1.9,0,0,1-.24.28L.12,17.94v.95h4.8V17.43Z"/><path class="cls-4" d="M4,26.18A1.79,1.79,0,0,0,3.4,26l1.3-1.46v-1H.47V25H2.38l-1,1.13v.95A1.31,1.31,0,0,1,1.73,27l.37,0a1.47,1.47,0,0,1,.55.09.7.7,0,0,1,.36.26.65.65,0,0,1,.12.4.69.69,0,0,1-.12.41.78.78,0,0,1-.33.26,1.13,1.13,0,0,1-.47.09,1.61,1.61,0,0,1-.64-.14A1.06,1.06,0,0,1,1.11,28L0,29.11a2.65,2.65,0,0,0,1,.64A3.28,3.28,0,0,0,2.24,30a3.27,3.27,0,0,0,1.38-.27,2.19,2.19,0,0,0,.92-.77,2.08,2.08,0,0,0,.32-1.14,2,2,0,0,0-.22-1A1.61,1.61,0,0,0,4,26.18Z"/><path class="cls-5" d="M46.73,25.52,44.88,22.3a.94.94,0,0,0-1.26-.23l-1.85,1.06h0a12,12,0,0,0-2.85-2.22l.55-2.07a.84.84,0,0,0-.6-1.05l-3.58-1a.85.85,0,0,0-1,.6l-.55,2.06h0a9.78,9.78,0,0,0-3.56.44l-1.06-1.85a.93.93,0,0,0-1.22-.34l-3.21,1.85c-.41.24-.37.7-.13,1.11l1.06,1.85h0a10.1,10.1,0,0,0-2.29,2.88l-2.13-.51a.86.86,0,0,0-1.05.61l-1,3.57a.87.87,0,0,0,.6,1.06l2.06.56h0a10,10,0,0,0,.46,3.59l-1.85,1.06a.73.73,0,0,0-.24,1.07L22,39.67a.67.67,0,0,0,1,.28l1.85-1.06h0a10,10,0,0,0,2.87,2.25l-.53,2.1a.86.86,0,0,0,.61,1l3.58,1a.88.88,0,0,0,1.06-.61l.58-2.07,0,0a10.4,10.4,0,0,0,3.66-.49l1.06,1.84c.23.42.56.62,1,.39L42,42.43a.86.86,0,0,0,.38-1.16l-1.06-1.84h0a9.4,9.4,0,0,0,2.19-2.83l2,.57a.85.85,0,0,0,1.05-.6l1-3.58A.87.87,0,0,0,47,31.92l-2.06-.57,0,0a10.43,10.43,0,0,0-.47-3.63l1.84-1.06C46.65,26.4,47,25.93,46.73,25.52Zm-17.57,2.2A5.34,5.34,0,0,1,30.7,26.4a5.25,5.25,0,0,1,2.39-.71h.65l.25,0,.13,0,.5.1.13,0,.24.07.12,0a1.17,1.17,0,0,1,.24.09l.12,0,.16.08.19.09.22.12a2.9,2.9,0,0,1,.29.19l.15.1.2.15a3.73,3.73,0,0,1,.3.26l.19.18A5.68,5.68,0,0,1,38,28.36a5.29,5.29,0,0,1,.69,2.27c0,.13,0,.26,0,.39a2.35,2.35,0,0,1,0,.26,2.11,2.11,0,0,1,0,.25,4.14,4.14,0,0,1-.1.63l-.06.25c0,.13-.07.25-.11.37L38.3,33l0,.12-.11.23-.18.34a1.64,1.64,0,0,1-.14.22A5.25,5.25,0,0,1,36,35.65a5.55,5.55,0,0,1-2,.67l-.26,0a5,5,0,0,1-.77,0l-.26,0-.12,0-.38-.07a5.32,5.32,0,0,1-3.48-2.55,5.53,5.53,0,0,1-.68-2,6.56,6.56,0,0,1,0-.89l0-.3a6.21,6.21,0,0,1,.13-.73,4.77,4.77,0,0,1,.23-.7.61.61,0,0,1,.05-.12c0-.08.07-.15.1-.23l.12-.23L29,28l.1-.13Z"/><path class="cls-6" d="M19.14,29.11l1-3.57a.86.86,0,0,1,1.05-.61l2.13.51c.2-.36.41-.69.63-1H13.58a2.84,2.84,0,0,0-2.84,2.84h0a2.84,2.84,0,0,0,2.84,2.83h6A.86.86,0,0,1,19.14,29.11Z"/><path class="cls-7" d="M27.86,17.74a.93.93,0,0,1,1.22.34l.73,1.27h3.92l.51-1.92a.85.85,0,0,1,1-.6l3.58,1a.84.84,0,0,1,.6,1.05l-.13.5h1.15a2.84,2.84,0,0,0,2.84-2.84h0a2.84,2.84,0,0,0-2.84-2.83H13.58a2.84,2.84,0,0,0-2.84,2.83h0a2.84,2.84,0,0,0,2.84,2.84H25.07Z"/><path class="cls-8" d="M31.65,45.69a1.13,1.13,0,0,1-.32,0l-3.58-1a1.25,1.25,0,0,1-.89-1.54l.45-1.8a10.4,10.4,0,0,1-2.49-2l-1.57.91a1.08,1.08,0,0,1-1.56-.43l-1.84-3.21a1.24,1.24,0,0,1-.17-.88,1.08,1.08,0,0,1,.55-.74l1.57-.9a10,10,0,0,1-.39-3.1l-1.77-.49A1.26,1.26,0,0,1,18.75,29l1-3.58a1.28,1.28,0,0,1,.59-.76,1.26,1.26,0,0,1,1-.13l1.83.44a10.44,10.44,0,0,1,2-2.5l-.91-1.58a1.15,1.15,0,0,1,.28-1.66l3.22-1.84a1.33,1.33,0,0,1,1.76.48l.9,1.57a9.78,9.78,0,0,1,3.06-.37l.47-1.75a1.24,1.24,0,0,1,.59-.77,1.26,1.26,0,0,1,.95-.12l3.57,1A1.25,1.25,0,0,1,39.86,19l-.47,1.77a13,13,0,0,1,2.44,1.91l1.59-.91a1.34,1.34,0,0,1,1.81.39l1.84,3.21A1.24,1.24,0,0,1,46.44,27l-1.57.9A10.54,10.54,0,0,1,45.28,31l1.79.49a1.28,1.28,0,0,1,.76.59,1.3,1.3,0,0,1,.13,1l-1,3.58a1.26,1.26,0,0,1-1.54.89l-1.73-.49a9.79,9.79,0,0,1-1.88,2.44l.91,1.58a1.27,1.27,0,0,1-.53,1.7L39,44.62a1.05,1.05,0,0,1-1.52-.53l-.9-1.57a10.73,10.73,0,0,1-3.21.43l-.5,1.81a1.28,1.28,0,0,1-.59.76A1.33,1.33,0,0,1,31.65,45.69ZM25,38.38l.22.24A9.43,9.43,0,0,0,28,40.79l.27.15-.6,2.4a.46.46,0,0,0,.32.57l3.58,1a.46.46,0,0,0,.36,0,.48.48,0,0,0,.22-.28l.61-2.2.27-.2h.14a9.92,9.92,0,0,0,3.53-.47l.3-.1,1.22,2.13c.21.35.33.28.43.23l3.21-1.85a.47.47,0,0,0,.23-.61l-1.22-2.13.24-.22a9.09,9.09,0,0,0,2.1-2.72l.15-.28,2.34.66a.46.46,0,0,0,.56-.33l1-3.58a.43.43,0,0,0,0-.35.51.51,0,0,0-.28-.22l-2.19-.6-.2-.24V31.3A9.47,9.47,0,0,0,44,27.82l-.09-.31L46,26.29c.2-.12.45-.38.34-.57L44.53,22.5a.55.55,0,0,0-.71-.08L41.7,23.63l-.22-.22a11.91,11.91,0,0,0-2.75-2.14l-.27-.16.63-2.37a.48.48,0,0,0-.32-.56l-3.58-1a.48.48,0,0,0-.35.05.46.46,0,0,0-.21.28l-.5,1.87.36.5-.81,0a9.44,9.44,0,0,0-3.42.42l-.3.1-1.23-2.13a.52.52,0,0,0-.67-.19l-3.21,1.85c-.2.11-.08.4,0,.56l1.22,2.13-.24.23a9.62,9.62,0,0,0-2.21,2.77l-.14.27-2.44-.58a.46.46,0,0,0-.35,0,.44.44,0,0,0-.22.28l-1,3.58a.45.45,0,0,0,.32.56l2.14.58.24.2v.19a9.4,9.4,0,0,0,.44,3.46l.09.3-2.12,1.23a.29.29,0,0,0-.17.2.47.47,0,0,0,.08.32l1.85,3.21c.12.22.24.26.46.13Zm8.38-1.62-.42,0-.27,0h-.14l-.41-.08a5.78,5.78,0,0,1-3.74-2.74,5.72,5.72,0,0,1-.72-2.19,5.14,5.14,0,0,1,0-1c0-.11,0-.21,0-.32a6.69,6.69,0,0,1,.14-.78,5.2,5.2,0,0,1,.25-.76,1.12,1.12,0,0,1,.05-.13c0-.08.07-.16.11-.25s.09-.16.13-.24.19-.32.29-.47l.11-.15.12-.16h0a5.78,5.78,0,0,1,1.65-1.42,5.68,5.68,0,0,1,2.57-.76h.7l.27,0,.14,0a5.12,5.12,0,0,1,.54.1l.13,0,.26.07.13.05.26.09.13.06.18.08.19.09.24.14.32.2.15.1.22.17c.11.09.22.18.32.28l.21.19a6.28,6.28,0,0,1,.87,1.16,5.64,5.64,0,0,1,.74,2.43c0,.14,0,.28,0,.42a2.72,2.72,0,0,1,0,.28,2.45,2.45,0,0,1,0,.27,5.07,5.07,0,0,1-.11.68l-.06.27-.12.39c0,.09-.07.17-.1.26a.5.5,0,0,0-.05.13l-.12.25c-.06.12-.13.24-.2.36s-.09.16-.14.24a5.75,5.75,0,0,1-4.11,2.56,2.66,2.66,0,0,1-.28,0ZM29.48,28l-.11.13-.09.13c-.09.13-.17.27-.25.41s-.07.14-.11.21a2,2,0,0,1-.1.21s0,.07,0,.11a3.79,3.79,0,0,0-.21.65,3.87,3.87,0,0,0-.12.68l0,.27a5.76,5.76,0,0,0,0,.83,5.09,5.09,0,0,0,.62,1.88,5,5,0,0,0,3.22,2.36l.35.06.12,0,.24,0a4.21,4.21,0,0,0,.71,0l.24,0a4.93,4.93,0,0,0,1.86-.62,4.83,4.83,0,0,0,1.68-1.59l.12-.2.17-.31.1-.22,0-.11c0-.07,0-.15.08-.22s.07-.23.11-.34,0-.15.05-.23a3.82,3.82,0,0,0,.09-.59,1.64,1.64,0,0,0,0-.23,1.93,1.93,0,0,0,0-.24c0-.12,0-.24,0-.36a4.9,4.9,0,0,0-.64-2.1,5.16,5.16,0,0,0-.75-1l-.17-.17a3.11,3.11,0,0,0-.28-.23L36.24,27l-.13-.09-.27-.17-.21-.12-.17-.08-.15-.07-.11,0L35,26.36l-.11,0-.23-.07-.11,0a3.89,3.89,0,0,0-.47-.09l-.12,0-.23,0h-.24c-.12,0-.24,0-.36,0a4.93,4.93,0,0,0-2.21.65A4.8,4.8,0,0,0,29.48,28Z"/></svg>