<svg id="Layer_1" data-name="Layer 1" xmlns="http://www.w3.org/2000/svg" xmlns:xlink="http://www.w3.org/1999/xlink" viewBox="0 0 42 42"><defs><style>.cls-1{fill:url(#linear-gradient);}.cls-2{fill:url(#linear-gradient-2);}.cls-3{fill:url(#linear-gradient-3);}.cls-4{fill:url(#linear-gradient-4);}</style><linearGradient id="linear-gradient" y1="24.44" x2="42" y2="24.44" gradientUnits="userSpaceOnUse"><stop offset="0" stop-color="#00e461"/><stop offset="1" stop-color="#00bafb"/></linearGradient><linearGradient id="linear-gradient-2" x1="32.95" y1="21.57" x2="36.91" y2="21.57" xlink:href="#linear-gradient"/><linearGradient id="linear-gradient-3" x1="25.76" y1="28.28" x2="27.92" y2="28.28" xlink:href="#linear-gradient"/><linearGradient id="linear-gradient-4" x1="26.8" y1="5.66" x2="39.19" y2="5.66" xlink:href="#linear-gradient"/></defs><path class="cls-1" d="M39.94,19.65H34.36V11.41a1.47,1.47,0,0,0-1.47-1.47H4.11a1.47,1.47,0,0,0-1.47,1.47v19H.93a.93.93,0,0,0-.93.93v2.26a.93.93,0,0,0,.93.93H23.07v3a1.38,1.38,0,0,0,1.38,1.38h4.78a1.38,1.38,0,0,0,1.37-1.19h9.34A2.07,2.07,0,0,0,42,35.68v-14A2.07,2.07,0,0,0,39.94,19.65ZM20.14,31.93H16.65a.38.38,0,0,1-.37-.37.37.37,0,0,1,.37-.37h3.49a.37.37,0,0,1,.37.37A.38.38,0,0,1,20.14,31.93ZM23.07,28v2.46H3.91v-19a.2.2,0,0,1,.2-.2H32.89a.2.2,0,0,1,.2.2v8.24H29.8a2.07,2.07,0,0,0-2.06,2.06V26.6H24.45A1.38,1.38,0,0,0,23.07,28Zm6.59,9.57a.43.43,0,0,1-.43.43H24.45a.43.43,0,0,1-.42-.43V28a.42.42,0,0,1,.42-.43h4.78a.43.43,0,0,1,.43.43ZM41,35.68a1.11,1.11,0,0,1-1.1,1.11H30.62V28a1.39,1.39,0,0,0-1.39-1.39H28.7V21.71a1.1,1.1,0,0,1,1.1-1.1H39.94a1.1,1.1,0,0,1,1.1,1.1Z"/><path class="cls-2" d="M36.61,21.27H33.25a.3.3,0,0,0-.3.3.31.31,0,0,0,.3.3h3.36a.31.31,0,0,0,.3-.3A.3.3,0,0,0,36.61,21.27Z"/><rect class="cls-3" x="25.76" y="28.1" width="2.16" height="0.36" rx="0.17"/><path class="cls-4" d="M27.69,8.25h3.18a.87.87,0,1,0,0-1.73h-1l-.11-.07c.19-.15.37-.31.55-.47a1.28,1.28,0,0,0,.21-.14l.26-.22a3.37,3.37,0,0,1,4.41,0l.26.22a1.28,1.28,0,0,0,.21.14c.18.16.36.32.56.47l-.12.07h-1a.87.87,0,1,0,0,1.73h3.18a.84.84,0,0,0,.87-.88c0-1.07,0-2.13,0-3.2a.8.8,0,0,0-.53-.79.86.86,0,0,0-1.2.79c0,.35,0,.7,0,1.11-.27-.27-.48-.5-.71-.71a5.37,5.37,0,0,0-3.56-1.51h-.35a5.41,5.41,0,0,0-3.56,1.51c-.23.21-.44.44-.7.71,0-.41,0-.76,0-1.11a.85.85,0,0,0-1.2-.79.8.8,0,0,0-.53.79c0,1.07,0,2.13,0,3.2A.85.85,0,0,0,27.69,8.25Z"/></svg>