<svg id="Layer_1" data-name="Layer 1" xmlns="http://www.w3.org/2000/svg" xmlns:xlink="http://www.w3.org/1999/xlink" viewBox="0 0 48 48"><defs><style>.cls-1{fill:url(#linear-gradient);}.cls-2{fill:#fff;}.cls-3{fill:url(#linear-gradient-2);}</style><linearGradient id="linear-gradient" y1="24" x2="48" y2="24" gradientUnits="userSpaceOnUse"><stop offset="0" stop-color="#00bafb"/><stop offset="1" stop-color="#00e461"/></linearGradient><linearGradient id="linear-gradient-2" x1="3.11" y1="22.57" x2="43.31" y2="22.57" xlink:href="#linear-gradient"/></defs><path class="cls-1" d="M45.91,8.23a3.54,3.54,0,0,0-3.4-2.59h-39A3.54,3.54,0,0,0,0,9.17V36.86a3.53,3.53,0,0,0,2.59,3.4,3.33,3.33,0,0,0,3.09,2.1h39A3.34,3.34,0,0,0,48,39V11.33A3.34,3.34,0,0,0,45.91,8.23ZM.38,36.86V9.17A3.16,3.16,0,0,1,3.53,6h39a3.14,3.14,0,0,1,3,2.07,3,3,0,0,0-.8-.1h-39a3.33,3.33,0,0,0-3.33,3.34V39a3.57,3.57,0,0,0,.09.8A3.16,3.16,0,0,1,.38,36.86Z"/><rect class="cls-2" x="0.44" y="5.99" width="45.27" height="34.08" rx="3.34"/><path class="cls-3" d="M42.36,23.46a1,1,0,1,0,0-1.9H37.22V13.32h5.14a1,1,0,0,0,0-1.91H37.22V10.08a.95.95,0,0,0-1.9,0v1.33H24.16V10.08a.95.95,0,0,0-1.9,0v1.33H11.1V10.08a1,1,0,0,0-1.91,0v1.33H4.06a1,1,0,0,0,0,1.91H9.19v8.24H4.06a.95.95,0,0,0,0,1.9H9.19V31.7H4.06a1,1,0,0,0,0,1.91H9.19v1.45a1,1,0,1,0,1.91,0V33.61H22.26v1.45a1,1,0,1,0,1.9,0V33.61H35.32v1.45a1,1,0,1,0,1.9,0V33.61h5.14a1,1,0,0,0,0-1.91H37.22V23.46Zm-7-10.14v8.24H24.16V13.32Zm-24.22,0H22.26v8.24H11.1Zm0,18.38V23.46H22.26V31.7Zm24.22,0H24.16V23.46H35.32Z"/></svg>