<svg id="Layer_1" data-name="Layer 1" xmlns="http://www.w3.org/2000/svg" xmlns:xlink="http://www.w3.org/1999/xlink" viewBox="0 0 48 48"><defs><style>.cls-1{fill:url(#linear-gradient);}.cls-2{fill:url(#linear-gradient-2);}.cls-3{fill:url(#linear-gradient-3);}.cls-4{fill:#fff;}.cls-5{fill:url(#linear-gradient-4);}</style><linearGradient id="linear-gradient" x1="-759.52" y1="-86.45" x2="-738.15" y2="-86.45" gradientTransform="translate(754.74 -167.6) rotate(-22.51)" gradientUnits="userSpaceOnUse"><stop offset="0" stop-color="#00bafb"/><stop offset="1" stop-color="#00e461"/></linearGradient><linearGradient id="linear-gradient-2" x1="2039.12" y1="-2146.78" x2="2060.5" y2="-2146.78" gradientTransform="translate(-2441.06 -1659.98) rotate(80.78)" xlink:href="#linear-gradient"/><linearGradient id="linear-gradient-3" x1="646.92" y1="-79.48" x2="668.29" y2="-79.48" gradientTransform="translate(-617.79 -94.37) rotate(15.7)" xlink:href="#linear-gradient"/><linearGradient id="linear-gradient-4" x1="14.09" y1="21.77" x2="35.37" y2="21.77" gradientTransform="matrix(1, 0, 0, 1, 0, 0)" xlink:href="#linear-gradient"/></defs><path class="cls-1" d="M36.72,36l-.33.65a7.2,7.2,0,0,1-7.52,3.85,31.22,31.22,0,0,1-3.75-1.09c.15-.19.16-.21.18-.22.63-.27,1.27-.53,1.9-.81A1.82,1.82,0,0,0,28.25,36a1.85,1.85,0,0,0-2.44-1c-2.08.84-4.14,1.7-6.2,2.57a1.79,1.79,0,0,0-1,2.42c.84,2.1,1.71,4.18,2.59,6.26a1.74,1.74,0,0,0,1.68,1.11,1.81,1.81,0,0,0,1.7-2.52c-.25-.69-.55-1.36-.88-2.17.74.31,1.34.58,1.94.8a11.31,11.31,0,0,0,8.84-.19,10.92,10.92,0,0,0,5.57-5.72A1.84,1.84,0,1,0,36.72,36Z"/><path class="cls-2" d="M7.92,26.91l-.56-.47a7.19,7.19,0,0,1-2-8.2,29.93,29.93,0,0,1,1.91-3.4c.16.19.18.2.18.22.12.68.23,1.36.35,2A1.83,1.83,0,0,0,9.9,18.67a1.85,1.85,0,0,0,1.51-2.15q-.51-3.31-1.08-6.62A1.8,1.8,0,0,0,8.21,8.36q-3.35.53-6.68,1.09A1.72,1.72,0,0,0,.06,10.82a1.81,1.81,0,0,0,2.05,2.24c.74-.09,1.46-.22,2.32-.35-.47.65-.87,1.16-1.23,1.7a11.3,11.3,0,0,0-1.84,8.65,10.86,10.86,0,0,0,4.28,6.73,1.84,1.84,0,1,0,2.28-2.88Z"/><path class="cls-3" d="M47.93,6.88A1.76,1.76,0,0,0,47.3,5a1.82,1.82,0,0,0-2.9.92c-.23.7-.41,1.42-.65,2.25-.39-.7-.69-1.28-1-1.83A11.27,11.27,0,0,0,35.65,1a10.86,10.86,0,0,0-7.91,1A1.83,1.83,0,1,0,29.4,5.32l.66-.3a7.17,7.17,0,0,1,8.28,1.62,31.4,31.4,0,0,1,2.28,3.17c-.23.06-.26.08-.27.07-.67-.18-1.33-.37-2-.54a1.83,1.83,0,1,0-1,3.52c2.15.63,4.3,1.23,6.46,1.82A1.8,1.8,0,0,0,46.1,13.4C46.72,11.23,47.33,9.05,47.93,6.88Z"/><path class="cls-4" d="M34.56,17.71l-1.35-2.36a.7.7,0,0,0-.93-.18L30.92,16h0a9.37,9.37,0,0,0-2.1-1.64l.41-1.52a.63.63,0,0,0-.45-.77l-2.62-.71a.63.63,0,0,0-.78.44L25,13.27h0a7.09,7.09,0,0,0-2.61.32l-.78-1.36a.69.69,0,0,0-.9-.25l-2.36,1.36c-.3.17-.27.51-.1.82L19,15.52h0a7.41,7.41,0,0,0-1.68,2.12l-1.57-.37a.64.64,0,0,0-.78.44l-.71,2.63a.64.64,0,0,0,.45.78l1.51.41h0a7.3,7.3,0,0,0,.34,2.64L15.22,25a.53.53,0,0,0-.17.78l1.36,2.37a.49.49,0,0,0,.74.2l1.36-.78h0a7.26,7.26,0,0,0,2.11,1.66l-.39,1.55a.63.63,0,0,0,.45.77l2.63.71a.64.64,0,0,0,.78-.45l.43-1.52,0,0a7.87,7.87,0,0,0,2.69-.36L28,31.22c.17.31.41.46.71.28l2.36-1.35a.64.64,0,0,0,.28-.85l-.78-1.36h0a7.16,7.16,0,0,0,1.61-2.08l1.49.42a.63.63,0,0,0,.77-.44l.71-2.64a.63.63,0,0,0-.44-.77L33.22,22l0,0a7.43,7.43,0,0,0-.35-2.66l1.36-.78C34.51,18.35,34.74,18,34.56,17.71ZM21.64,19.33a4,4,0,0,1,1.13-1,3.92,3.92,0,0,1,1.77-.51H25l.19,0h.09l.37.08.09,0,.18.05.09,0,.18.07.08,0,.13.06.13.07.17.09.21.13.1.07.16.12.22.19.13.13a3.9,3.9,0,0,1,1.11,2.46,2.62,2.62,0,0,1,0,.28v.19c0,.07,0,.13,0,.19a3.81,3.81,0,0,1-.07.47,1.21,1.21,0,0,1,0,.18,2.76,2.76,0,0,1-.08.27,1.34,1.34,0,0,1-.07.18l0,.08c0,.06,0,.12-.08.17s-.09.17-.13.25l-.1.17a4,4,0,0,1-1.34,1.26,3.86,3.86,0,0,1-1.48.49l-.19,0h-.57l-.18,0h-.1l-.27-.05a3.9,3.9,0,0,1-3.06-3.38,3.56,3.56,0,0,1,0-.65,1.5,1.5,0,0,1,0-.22,5.07,5.07,0,0,1,.09-.54,4.36,4.36,0,0,1,.17-.51.36.36,0,0,1,0-.09c0-.06.05-.12.07-.17l.09-.17a3.45,3.45,0,0,1,.2-.32l.07-.11Z"/><path class="cls-5" d="M23.48,32.41l-.21,0-2.63-.71a.78.78,0,0,1-.56-1l.35-1.42a7.35,7.35,0,0,1-1.95-1.53l-1.25.71a.65.65,0,0,1-1-.26l-1.36-2.36a.69.69,0,0,1,.23-1l1.25-.72a7.36,7.36,0,0,1-.31-2.44l-1.4-.39a.78.78,0,0,1-.56-1l.71-2.63a.8.8,0,0,1,1-.56l1.45.35a7.42,7.42,0,0,1,1.56-2l-.72-1.25a1,1,0,0,1-.15-.55.58.58,0,0,1,.31-.49l2.36-1.36a.83.83,0,0,1,.62-.07.87.87,0,0,1,.5.38l.71,1.24a7.36,7.36,0,0,1,2.41-.29l.38-1.39a.72.72,0,0,1,.37-.48.78.78,0,0,1,.6-.08l2.63.71a.84.84,0,0,1,.48.37.79.79,0,0,1,.07.6L29,14.24a9.55,9.55,0,0,1,1.93,1.51L32.2,15a1,1,0,0,1,.62-.11.76.76,0,0,1,.53.34l1.35,2.37a.78.78,0,0,1-.41,1L33,19.38a7.32,7.32,0,0,1,.32,2.49l1.42.39a.8.8,0,0,1,.56,1l-.71,2.63a.8.8,0,0,1-1,.56L32.29,26A7.15,7.15,0,0,1,30.8,28l.72,1.25a.67.67,0,0,1,.05.6.9.9,0,0,1-.39.47l-2.36,1.36a.61.61,0,0,1-.55,0,.85.85,0,0,1-.38-.39l-.72-1.24a7.6,7.6,0,0,1-2.52.33l-.4,1.43a.78.78,0,0,1-.37.48A.83.83,0,0,1,23.48,32.41Zm-4.94-5.07.09.09a7.09,7.09,0,0,0,2.07,1.63l.11.06-.42,1.67a.46.46,0,0,0,.33.57l2.64.71a.46.46,0,0,0,.36,0,.44.44,0,0,0,.22-.28l.44-1.58.12-.09h.06a7.53,7.53,0,0,0,2.64-.36l.12,0,.85,1.47a.6.6,0,0,0,.23.26.27.27,0,0,0,.26,0L31,30a.64.64,0,0,0,.25-.29.4.4,0,0,0,0-.34l-.85-1.48.1-.09a6.85,6.85,0,0,0,1.57-2l.07-.12,1.61.46a.49.49,0,0,0,.58-.34L35,23.15a.5.5,0,0,0-.05-.36.46.46,0,0,0-.29-.22l-1.56-.43L33,22V22a7.24,7.24,0,0,0-.35-2.61l0-.13,1.48-.84c.23-.14.41-.39.29-.6l-1.35-2.36a.4.4,0,0,0-.3-.19.72.72,0,0,0-.41.07l-1.47.85-.09-.09a9.12,9.12,0,0,0-2.05-1.61l-.11-.06.43-1.64a.5.5,0,0,0,0-.36.58.58,0,0,0-.29-.22l-2.63-.71a.48.48,0,0,0-.35,0,.44.44,0,0,0-.22.28l-.39,1.44.15.2H25a7.07,7.07,0,0,0-2.56.31l-.12,0-.84-1.47a.56.56,0,0,0-.31-.23.52.52,0,0,0-.37,0l-2.36,1.36a.26.26,0,0,0-.15.23.7.7,0,0,0,.11.36l.85,1.48-.1.09a7.23,7.23,0,0,0-1.65,2.08l-.06.11-1.69-.41a.48.48,0,0,0-.58.33l-.71,2.63a.47.47,0,0,0,.33.58l1.55.42.1.09v.07a7.2,7.2,0,0,0,.32,2.59l0,.12-1.47.85a.37.37,0,0,0-.11.56L16.55,28a.34.34,0,0,0,.52.14Zm6.19-1.5h-.3l-.19,0h-.1l-.29-.05a4.07,4.07,0,0,1-3.18-3.52,3.87,3.87,0,0,1,0-.68,1.79,1.79,0,0,1,0-.23,5.43,5.43,0,0,1,.09-.56q.07-.27.18-.54a.36.36,0,0,1,0-.09.89.89,0,0,1,.08-.17l.09-.18a3.13,3.13,0,0,1,.21-.34l.07-.1.09-.11h0a4.05,4.05,0,0,1,3-1.56H25l.2,0h.09l.39.08.09,0,.19.06.09,0,.19.07.09,0,.12,0,.14.07.18.1.22.14.11.07.16.12.23.2.14.14a4.11,4.11,0,0,1,.62.82,4,4,0,0,1,.53,1.74c0,.1,0,.2,0,.29V22c0,.07,0,.13,0,.2a4,4,0,0,1-.07.48c0,.07,0,.13,0,.19a2.29,2.29,0,0,1-.09.28,1.46,1.46,0,0,1-.07.19l0,.09-.09.18-.14.26a1.4,1.4,0,0,1-.1.16,4.06,4.06,0,0,1-2.93,1.83l-.2,0Zm0-7.85h-.18a3.79,3.79,0,0,0-1.69.49,3.9,3.9,0,0,0-1.08.94h0l-.08.1-.07.1c-.06.1-.13.2-.19.31s-.05.1-.08.16-.05.11-.08.16l0,.09a2.81,2.81,0,0,0-.16.49,4.34,4.34,0,0,0-.09.52,1.23,1.23,0,0,0,0,.2,4.38,4.38,0,0,0,0,.63,3.78,3.78,0,0,0,2.93,3.24l.27.05h.09l.18,0H25l.18,0a3.75,3.75,0,0,0,2.7-1.68l.1-.16.12-.24a1.19,1.19,0,0,0,.08-.16l0-.08c0-.06.05-.12.07-.17s0-.18.08-.26,0-.12,0-.18a3.11,3.11,0,0,0,.07-.44,1.09,1.09,0,0,0,0-.18,1.21,1.21,0,0,0,0-.19,2.44,2.44,0,0,0,0-.27,3.73,3.73,0,0,0-1.06-2.35L27.28,19a1.12,1.12,0,0,0-.2-.18l-.15-.11-.1-.07-.21-.13-.15-.09-.13-.06-.12-.06-.08,0L26,18.2l-.09,0-.17-.06-.09,0L25.27,18h-.09L25,18h-.28Z"/></svg>