<svg id="Layer_1" data-name="Layer 1" xmlns="http://www.w3.org/2000/svg" xmlns:xlink="http://www.w3.org/1999/xlink" viewBox="0 0 48 48"><defs><style>.cls-1{fill:url(#linear-gradient);}.cls-2{fill:url(#linear-gradient-2);}.cls-3{fill:url(#linear-gradient-3);}.cls-4{fill:url(#linear-gradient-4);}.cls-5{fill:url(#linear-gradient-5);}.cls-6{fill:url(#linear-gradient-6);}</style><linearGradient id="linear-gradient" x1="5.97" y1="26.76" x2="48" y2="26.76" gradientUnits="userSpaceOnUse"><stop offset="0" stop-color="#00bafb"/><stop offset="1" stop-color="#00e461"/></linearGradient><linearGradient id="linear-gradient-2" x1="27.95" y1="26.68" x2="38.89" y2="26.68" xlink:href="#linear-gradient"/><linearGradient id="linear-gradient-3" x1="5.97" y1="8.73" x2="33.69" y2="8.73" xlink:href="#linear-gradient"/><linearGradient id="linear-gradient-4" x1="0.04" y1="8.61" x2="2.05" y2="8.61" xlink:href="#linear-gradient"/><linearGradient id="linear-gradient-5" x1="0.04" y1="17.78" x2="3.36" y2="17.78" xlink:href="#linear-gradient"/><linearGradient id="linear-gradient-6" x1="0" y1="26.75" x2="3.33" y2="26.75" xlink:href="#linear-gradient"/></defs><path class="cls-1" d="M45.47,25.78,48,24.16l-1.79-4.92-3,.38a12.29,12.29,0,0,0-2-2.22l.64-2.94-4.74-2.21-1.84,2.38a12.17,12.17,0,0,0-3-.14L30.61,12l-4.92,1.78L26,16.51H6.88a.9.9,0,0,0-.91.9v.85a.91.91,0,0,0,.91.91H20.43L18.7,22.88l2.38,1.84c0,.29-.09.59-.12.89H6.88a.91.91,0,0,0-.91.91v.84a.91.91,0,0,0,.91.91H20.11l-1.69,1.09,1.79,4.91,3-.38a12.31,12.31,0,0,0,2,2.23l-.64,2.93,4.74,2.21,1.84-2.37a12.16,12.16,0,0,0,3,.13l1.63,2.53,4.91-1.79-.37-3a12.63,12.63,0,0,0,2.22-2l2.94.64,2.21-4.74L45.34,28.8A12.22,12.22,0,0,0,45.47,25.78Zm1.75,5-1.94,4.16-2.86-.62-.08.09A12,12,0,0,1,40,36.52l-.1.07.37,2.9L36,41.06,34.39,38.6h-.12a11.48,11.48,0,0,1-3.15-.14l-.12,0-1.79,2.32-4.16-1.94L25.67,36l-.1-.07a12,12,0,0,1-2.12-2.32l-.07-.1-2.91.37L18.9,29.52l2.46-1.58v-.12a12.32,12.32,0,0,1,.14-3.15l0-.12L19.2,22.76l1.94-4.17,2.86.62.08-.09A12,12,0,0,1,26.4,17l.1-.06L26.13,14l4.31-1.57L32,14.91h.12A11.88,11.88,0,0,1,35.3,15l.11,0,1.8-2.32,4.16,1.95-.62,2.86.09.08A11.46,11.46,0,0,1,43,20l.07.1L46,19.68,47.52,24l-2.47,1.59v.12a11.8,11.8,0,0,1-.13,3.14l0,.12Z"/><path class="cls-2" d="M35.73,21.72a5.47,5.47,0,1,0-2.31,10.43,5.59,5.59,0,0,0,1.87-.33,5.47,5.47,0,0,0,.44-10.1ZM38,28.82a5,5,0,0,1-2.86,2.62,5.07,5.07,0,1,1-3.47-9.52A5.07,5.07,0,0,1,38,28.82Z"/><rect class="cls-3" x="5.97" y="7.4" width="27.71" height="2.66" rx="0.91"/><polygon class="cls-4" points="0.84 10.78 2.05 10.78 2.05 6.45 1.99 6.45 0.84 6.45 0.04 6.45 0.04 7.45 0.84 7.45 0.84 10.78"/><path class="cls-5" d="M2.62,18.34A2.75,2.75,0,0,0,3,17.91a1.59,1.59,0,0,0,.22-.43A1.7,1.7,0,0,0,3.27,17a1.47,1.47,0,0,0-.19-.77,1.28,1.28,0,0,0-.54-.49,1.87,1.87,0,0,0-.85-.18,2.12,2.12,0,0,0-1,.22,1.66,1.66,0,0,0-.69.65l.79.71a1.88,1.88,0,0,1,.37-.43.69.69,0,0,1,.39-.12.52.52,0,0,1,.36.12.46.46,0,0,1,.14.34.51.51,0,0,1,0,.17A.89.89,0,0,1,2,17.4a1.37,1.37,0,0,1-.17.19L.08,19.33V20H3.36V19H1.94Z"/><path class="cls-6" d="M2.76,26.35a1,1,0,0,0-.43-.14l.89-1v-.65H.32v1H1.63L1,26.32V27a.87.87,0,0,1,.21,0l.26,0a1.08,1.08,0,0,1,.38.06.55.55,0,0,1,.24.18.42.42,0,0,1,.08.28.44.44,0,0,1-.08.28.54.54,0,0,1-.22.17.88.88,0,0,1-.33.06,1.15,1.15,0,0,1-.44-.09.7.7,0,0,1-.31-.24L0,28.36a2,2,0,0,0,.67.44,2.43,2.43,0,0,0,.86.15,2.18,2.18,0,0,0,1-.19,1.48,1.48,0,0,0,.63-.52,1.48,1.48,0,0,0,.22-.78,1.38,1.38,0,0,0-.15-.67A1.05,1.05,0,0,0,2.76,26.35Z"/></svg>