<svg id="Layer_1" data-name="Layer 1" xmlns="http://www.w3.org/2000/svg" xmlns:xlink="http://www.w3.org/1999/xlink" viewBox="0 0 48 48"><defs><style>.cls-1{fill:url(#linear-gradient);}.cls-2{fill:#fff;}.cls-3{fill:url(#linear-gradient-2);}.cls-4{fill:url(#linear-gradient-3);}</style><linearGradient id="linear-gradient" y1="31.42" x2="48" y2="31.42" gradientUnits="userSpaceOnUse"><stop offset="0" stop-color="#00bafb"/><stop offset="1" stop-color="#00e461"/></linearGradient><linearGradient id="linear-gradient-2" x1="16.39" y1="18.64" x2="36.5" y2="18.64" xlink:href="#linear-gradient"/><linearGradient id="linear-gradient-3" x1="20.69" y1="29.73" x2="31.8" y2="29.73" xlink:href="#linear-gradient"/></defs><path class="cls-1" d="M40.33,29.34A7.67,7.67,0,0,0,35.57,31c0-.16,0-.32,0-.49a12.33,12.33,0,0,0-24-3.94A9.21,9.21,0,1,0,9.21,44.67H40.33a7.67,7.67,0,1,0,0-15.33Z"/><polygon class="cls-2" points="32 16.79 36.1 16.79 26.45 3.67 16.79 16.79 20.89 16.79 20.89 33.75 32 33.75 32 16.79"/><path class="cls-3" d="M32.2,34H20.69V17h-4.3L26.44,3.33,36.5,17H32.2Zm-11.11-.4H31.8v-17h3.9L26.44,4,17.19,16.59h3.9Z"/><rect class="cls-4" x="20.69" y="28.79" width="11.1" height="1.88"/></svg>