<svg id="Layer_1" data-name="Layer 1" xmlns="http://www.w3.org/2000/svg" xmlns:xlink="http://www.w3.org/1999/xlink" viewBox="0 0 48 48"><defs><style>.cls-1{fill:url(#linear-gradient);}.cls-2{fill:#fff;}.cls-3{fill:#8c8c8c;}.cls-4{fill:url(#linear-gradient-2);}.cls-5{fill:url(#linear-gradient-3);}.cls-6{fill:url(#linear-gradient-4);}</style><linearGradient id="linear-gradient" x1="13.56" y1="24.36" x2="35.41" y2="24.36" gradientUnits="userSpaceOnUse"><stop offset="0" stop-color="#00bafb"/><stop offset="1" stop-color="#00e461"/></linearGradient><linearGradient id="linear-gradient-2" x1="0.24" y1="24" x2="47.76" y2="24" xlink:href="#linear-gradient"/><linearGradient id="linear-gradient-3" x1="0" y1="24" x2="48" y2="24" xlink:href="#linear-gradient"/><linearGradient id="linear-gradient-4" x1="18.38" y1="24.03" x2="29.68" y2="24.03" xlink:href="#linear-gradient"/></defs><circle class="cls-1" cx="24.48" cy="24.36" r="10.93"/><path class="cls-2" d="M24,11.12C9,11.12.89,23.15.34,24,.89,24.85,9,36.88,24,36.88S47.11,24.85,47.66,24C47.11,23.15,39,11.12,24,11.12Zm0,22.57A9.69,9.69,0,1,1,33.69,24,9.69,9.69,0,0,1,24,33.69Z"/><path class="cls-3" d="M24,37.08A27.61,27.61,0,0,1,6.62,30.92,30.59,30.59,0,0,1,.18,24.11L.11,24l.07-.11a30.59,30.59,0,0,1,6.44-6.81,27.6,27.6,0,0,1,34.76,0,30.59,30.59,0,0,1,6.44,6.81l.07.11-.07.11a30.59,30.59,0,0,1-6.44,6.81A27.61,27.61,0,0,1,24,37.08ZM.58,24a30.59,30.59,0,0,0,6.28,6.6,27.2,27.2,0,0,0,34.28,0A30.59,30.59,0,0,0,47.42,24a30.59,30.59,0,0,0-6.28-6.6,27.2,27.2,0,0,0-34.28,0A30.59,30.59,0,0,0,.58,24ZM24,33.89A9.89,9.89,0,1,1,33.89,24,9.91,9.91,0,0,1,24,33.89Zm0-19.38A9.49,9.49,0,1,0,33.49,24,9.5,9.5,0,0,0,24,14.51Z"/><path class="cls-4" d="M24,37a27,27,0,0,1-10-1.9,29.23,29.23,0,0,1-7.32-4.24A30.24,30.24,0,0,1,.27,24.05l0-.05,0-.05a30.24,30.24,0,0,1,6.42-6.78A29.23,29.23,0,0,1,14,12.93a27.21,27.21,0,0,1,20,0,29.23,29.23,0,0,1,7.32,4.24A30.24,30.24,0,0,1,47.73,24l0,.05,0,.05a30.24,30.24,0,0,1-6.42,6.78A29.23,29.23,0,0,1,34,35.07,27,27,0,0,1,24,37ZM.45,24A30.56,30.56,0,0,0,6.8,30.69a27.3,27.3,0,0,0,34.4,0A30.56,30.56,0,0,0,47.55,24a30.56,30.56,0,0,0-6.35-6.69,27.3,27.3,0,0,0-34.4,0A30.56,30.56,0,0,0,.45,24ZM24,33.78A9.78,9.78,0,1,1,33.78,24,9.79,9.79,0,0,1,24,33.78ZM24,14.4A9.6,9.6,0,1,0,33.6,24,9.62,9.62,0,0,0,24,14.4Z"/><path class="cls-5" d="M24,37.17a27.22,27.22,0,0,1-10.07-1.91A30.31,30.31,0,0,1,6.56,31,31.05,31.05,0,0,1,.1,24.16L0,24l.1-.16A31.05,31.05,0,0,1,6.56,17a30.31,30.31,0,0,1,7.37-4.27,27.5,27.5,0,0,1,20.14,0A30.31,30.31,0,0,1,41.44,17a31.05,31.05,0,0,1,6.46,6.83L48,24l-.1.16A31.05,31.05,0,0,1,41.44,31a30.31,30.31,0,0,1-7.37,4.27A27.22,27.22,0,0,1,24,37.17ZM.69,24a30.28,30.28,0,0,0,6.23,6.53,27.1,27.1,0,0,0,34.16,0A30.28,30.28,0,0,0,47.31,24a30.28,30.28,0,0,0-6.23-6.53,27.1,27.1,0,0,0-34.16,0A30.28,30.28,0,0,0,.69,24ZM24,34A10,10,0,1,1,34,24,10,10,0,0,1,24,34ZM24,14.6A9.4,9.4,0,1,0,33.4,24,9.41,9.41,0,0,0,24,14.6Z"/><path class="cls-2" d="M24,18.58a5.35,5.35,0,0,0-2.12.43,2.39,2.39,0,0,1-1.83,3.93,2.41,2.41,0,0,1-1.3-.38,5.45,5.45,0,1,0,5.25-4Z"/><path class="cls-6" d="M24,29.68A5.66,5.66,0,0,1,18.38,24a5.52,5.52,0,0,1,.21-1.52l.08-.26.22.14a2.19,2.19,0,0,0,3.38-1.84,2.18,2.18,0,0,0-.51-1.41l-.17-.21.24-.1a5.55,5.55,0,0,1,2.2-.45,5.65,5.65,0,0,1,0,11.3Zm-5.12-6.82A5.12,5.12,0,0,0,18.78,24a5.26,5.26,0,1,0,3.45-4.93,2.63,2.63,0,0,1,.44,1.45,2.59,2.59,0,0,1-2.59,2.59A2.62,2.62,0,0,1,18.91,22.86Z"/></svg>